<svg xmlns="http://www.w3.org/2000/svg" xmlns:xlink="http://www.w3.org/1999/xlink" viewBox="0 0 595.28 841.89"><defs><style>.cls-1,.cls-10,.cls-13,.cls-6,.cls-9{fill:none;}.cls-2{fill:#f9b000;}.cls-3{font-size:9px;}.cls-16,.cls-18,.cls-19,.cls-3{font-family:SourceSansPro-Regular, Source Sans Pro;}.cls-4{font-size:24px;fill:#565555;font-family:SourceSansPro-ExtraLight, Source Sans Pro;font-weight:200;}.cls-5{clip-path:url(#clip-path);}.cls-10,.cls-6,.cls-9{stroke:#fff;}.cls-6{stroke-width:0.38px;}.cls-7{fill:#e53d3e;}.cls-8{fill:#3ba4dc;}.cls-13,.cls-9{stroke-width:0.36px;}.cls-10{stroke-width:0.56px;}.cls-11{fill:#f08237;}.cls-12{fill:#fcbf36;}.cls-13{stroke:#c1cdcd;}.cls-14,.cls-15,.cls-17,.cls-20{font-size:8px;font-family:SourceSansPro-SemiBold, Source Sans Pro;font-weight:600;}.cls-14,.cls-15,.cls-17{fill:#fff;}.cls-14,.cls-20{letter-spacing:0.01em;}.cls-15{letter-spacing:0.01em;}.cls-16{font-size:6px;letter-spacing:0.01em;}.cls-16,.cls-18,.cls-19{font-weight:400;}.cls-18{letter-spacing:0em;}.cls-20{fill:#444;}</style><clipPath id="clip-path"><rect class="cls-1" x="44.85" y="130.11" width="505.86" height="229.57" rx="7.41"/></clipPath><symbol id="Header-blank" data-name="Header-blank" viewBox="0 0 504.94 42.29"><rect class="cls-2" x="0.48" y="39.29" width="504.47" height="3"/><text class="cls-3" transform="translate(0 8.08)">Name: </text><text class="cls-3" transform="translate(406.1 7.47)">Gender:</text><text class="cls-3" transform="translate(275.75 27.21)">NHS No.: </text><text class="cls-3" transform="translate(426.92 27.21)">MRN: </text><text class="cls-3" transform="translate(121.86 27.21)">Admission Date: </text><text class="cls-3" transform="translate(0 27.21)">DOB: </text></symbol></defs><title>SEND_DES-157_BCP_chart_TRUST-CONFIGURABLE_KH_190926</title><g id="blank"><g id="Escalation"><text class="cls-4" transform="translate(45.37 108.34)">NEWS2 Parameters and Escalation Pathway</text><g class="cls-5"><line class="cls-6" x1="156.88" y1="128.36" x2="156.88" y2="157.42"/><rect class="cls-7" x="157.1" y="128.61" width="55.68" height="28.56"/><line class="cls-6" x1="213" y1="128.36" x2="213" y2="157.42"/><rect class="cls-8" x="44.85" y="128.36" width="505.4" height="29.06"/><line class="cls-6" x1="156.88" y1="128.36" x2="156.88" y2="157.42"/><line class="cls-6" x1="213" y1="128.36" x2="213" y2="157.42"/><line class="cls-6" x1="269.13" y1="128.36" x2="269.13" y2="157.42"/><line class="cls-6" x1="381.38" y1="128.36" x2="381.38" y2="157.42"/><line class="cls-6" x1="437.51" y1="128.36" x2="437.51" y2="157.42"/><line class="cls-6" x1="493.63" y1="128.36" x2="493.63" y2="157.42"/><line class="cls-6" x1="269.13" y1="128.36" x2="269.13" y2="157.42"/><line class="cls-6" x1="325.7" y1="128.36" x2="325.7" y2="157.42"/><line class="cls-6" x1="381.38" y1="128.36" x2="381.38" y2="157.42"/><line class="cls-6" x1="437.51" y1="128.36" x2="437.51" y2="157.42"/><line class="cls-6" x1="493.63" y1="128.36" x2="493.63" y2="157.42"/><line class="cls-9" x1="44.62" y1="201.25" x2="44.62" y2="226.47"/><line class="cls-10" x1="213" y1="166.63" x2="269.13" y2="166.63"/><line class="cls-10" x1="437.51" y1="166.63" x2="493.63" y2="166.63"/><line class="cls-9" x1="44.62" y1="226.47" x2="44.62" y2="251.69"/><line class="cls-9" x1="44.62" y1="251.69" x2="44.62" y2="276.91"/><line class="cls-9" x1="44.62" y1="302.13" x2="44.62" y2="327.35"/><line class="cls-9" x1="44.62" y1="327.35" x2="44.62" y2="352.57"/><line class="cls-9" x1="44.62" y1="352.57" x2="44.62" y2="378.02"/><rect class="cls-7" x="157.1" y="158.2" width="56.39" height="201.49"/><rect class="cls-11" x="213.22" y="158.2" width="56.39" height="201.49"/><rect class="cls-11" x="437.73" y="158.2" width="56.39" height="201.49"/><rect class="cls-12" x="381.6" y="158.2" width="56.39" height="201.49"/><rect class="cls-8" x="44.85" y="158.2" width="111.25" height="201.49"/><line class="cls-9" x1="44.62" y1="183.82" x2="100.75" y2="183.82"/><line class="cls-9" x1="100.75" y1="183.82" x2="156.88" y2="183.82"/><line class="cls-9" x1="156.88" y1="183.82" x2="213" y2="183.82"/><line class="cls-9" x1="213" y1="183.82" x2="269.13" y2="183.82"/><rect class="cls-12" x="269.35" y="158.2" width="56.39" height="201.49"/><line class="cls-9" x1="269.13" y1="183.82" x2="325.25" y2="183.82"/><line class="cls-9" x1="325.25" y1="183.82" x2="381.38" y2="183.82"/><line class="cls-9" x1="381.38" y1="183.82" x2="437.51" y2="183.82"/><rect class="cls-7" x="493.86" y="158.2" width="56.39" height="201.49"/><line class="cls-9" x1="437.51" y1="183.82" x2="493.63" y2="183.82"/><line class="cls-9" x1="493.63" y1="183.82" x2="549.76" y2="183.82"/><line class="cls-9" x1="44.62" y1="183.82" x2="100.75" y2="183.82"/><line class="cls-9" x1="44.62" y1="209.04" x2="100.75" y2="209.04"/><line class="cls-9" x1="100.75" y1="183.82" x2="156.88" y2="183.82"/><line class="cls-9" x1="156.88" y1="183.82" x2="156.88" y2="209.04"/><line class="cls-9" x1="100.75" y1="209.04" x2="156.88" y2="209.04"/><line class="cls-9" x1="156.88" y1="183.82" x2="213" y2="183.82"/><line class="cls-9" x1="156.88" y1="209.04" x2="213" y2="209.04"/><line class="cls-9" x1="156.88" y1="183.82" x2="156.88" y2="209.04"/><line class="cls-9" x1="269.13" y1="183.82" x2="269.13" y2="209.04"/><line class="cls-9" x1="213" y1="209.04" x2="269.13" y2="209.04"/><line class="cls-9" x1="269.13" y1="183.82" x2="325.25" y2="183.82"/><line class="cls-9" x1="269.13" y1="209.04" x2="325.25" y2="209.04"/><line class="cls-13" x1="325.25" y1="183.82" x2="381.38" y2="183.82"/><line class="cls-9" x1="381.38" y1="183.82" x2="381.38" y2="209.04"/><line class="cls-9" x1="325.25" y1="209.04" x2="381.38" y2="209.04"/><line class="cls-9" x1="381.38" y1="183.82" x2="437.51" y2="183.82"/><line class="cls-9" x1="437.51" y1="183.82" x2="437.51" y2="209.04"/><line class="cls-9" x1="381.38" y1="209.04" x2="437.51" y2="209.04"/><line class="cls-9" x1="381.38" y1="183.82" x2="381.38" y2="209.04"/><line class="cls-9" x1="493.63" y1="183.82" x2="493.63" y2="209.04"/><line class="cls-9" x1="437.51" y1="158.2" x2="437.51" y2="183.42"/><line class="cls-9" x1="493.63" y1="158.2" x2="493.63" y2="183.42"/><line class="cls-9" x1="437.51" y1="209.04" x2="493.63" y2="209.04"/><line class="cls-9" x1="493.63" y1="183.82" x2="549.76" y2="183.82"/><line class="cls-9" x1="493.63" y1="209.04" x2="549.76" y2="209.04"/><line class="cls-9" x1="44.62" y1="209.04" x2="100.75" y2="209.04"/><line class="cls-9" x1="44.62" y1="234.26" x2="100.75" y2="234.26"/><line class="cls-9" x1="100.75" y1="209.04" x2="156.88" y2="209.04"/><line class="cls-9" x1="156.88" y1="209.04" x2="156.88" y2="234.26"/><line class="cls-9" x1="100.75" y1="234.26" x2="156.88" y2="234.26"/><line class="cls-9" x1="156.88" y1="209.04" x2="213" y2="209.04"/><line class="cls-9" x1="156.88" y1="234.26" x2="213" y2="234.26"/><line class="cls-9" x1="156.88" y1="209.04" x2="156.88" y2="234.26"/><line class="cls-9" x1="213" y1="209.04" x2="269.13" y2="209.04"/><line class="cls-9" x1="269.13" y1="209.04" x2="269.13" y2="234.26"/><line class="cls-9" x1="213" y1="234.26" x2="269.13" y2="234.26"/><line class="cls-9" x1="269.13" y1="209.04" x2="325.25" y2="209.04"/><line class="cls-9" x1="269.13" y1="234.26" x2="325.25" y2="234.26"/><line class="cls-9" x1="325.25" y1="209.04" x2="381.38" y2="209.04"/><line class="cls-9" x1="381.38" y1="209.04" x2="381.38" y2="234.26"/><line class="cls-9" x1="325.25" y1="234.26" x2="381.38" y2="234.26"/><line class="cls-9" x1="381.38" y1="209.04" x2="437.51" y2="209.04"/><line class="cls-9" x1="437.51" y1="209.04" x2="437.51" y2="234.26"/><line class="cls-9" x1="381.38" y1="234.26" x2="437.51" y2="234.26"/><line class="cls-9" x1="381.38" y1="209.04" x2="381.38" y2="234.26"/><line class="cls-9" x1="437.51" y1="209.04" x2="493.63" y2="209.04"/><line class="cls-9" x1="493.63" y1="209.04" x2="493.63" y2="234.26"/><line class="cls-9" x1="437.51" y1="234.26" x2="493.63" y2="234.26"/><line class="cls-9" x1="437.51" y1="209.04" x2="437.51" y2="234.26"/><line class="cls-9" x1="493.63" y1="209.04" x2="549.76" y2="209.04"/><line class="cls-9" x1="493.63" y1="234.26" x2="549.76" y2="234.26"/><line class="cls-9" x1="493.63" y1="209.04" x2="493.63" y2="234.26"/><line class="cls-9" x1="44.62" y1="234.26" x2="100.75" y2="234.26"/><line class="cls-9" x1="44.62" y1="259.48" x2="100.75" y2="259.48"/><line class="cls-9" x1="100.75" y1="234.26" x2="156.88" y2="234.26"/><line class="cls-9" x1="156.88" y1="234.26" x2="156.88" y2="259.48"/><line class="cls-9" x1="100.75" y1="259.48" x2="156.88" y2="259.48"/><line class="cls-9" x1="156.88" y1="234.26" x2="213" y2="234.26"/><line class="cls-9" x1="156.88" y1="259.48" x2="213" y2="259.48"/><line class="cls-9" x1="156.88" y1="234.26" x2="156.88" y2="259.48"/><line class="cls-9" x1="213" y1="234.26" x2="269.13" y2="234.26"/><line class="cls-9" x1="269.13" y1="234.26" x2="269.13" y2="259.48"/><line class="cls-9" x1="213" y1="259.48" x2="269.13" y2="259.48"/><line class="cls-9" x1="269.13" y1="234.26" x2="325.25" y2="234.26"/><line class="cls-9" x1="269.13" y1="259.48" x2="325.25" y2="259.48"/><line class="cls-9" x1="325.25" y1="234.26" x2="381.38" y2="234.26"/><line class="cls-9" x1="381.38" y1="234.26" x2="381.38" y2="259.48"/><line class="cls-9" x1="325.25" y1="259.48" x2="381.38" y2="259.48"/><line class="cls-9" x1="381.38" y1="234.26" x2="437.51" y2="234.26"/><line class="cls-9" x1="437.51" y1="234.26" x2="437.51" y2="259.48"/><line class="cls-9" x1="381.38" y1="259.48" x2="437.51" y2="259.48"/><line class="cls-9" x1="381.38" y1="234.26" x2="381.38" y2="259.48"/><line class="cls-9" x1="437.51" y1="234.26" x2="493.63" y2="234.26"/><line class="cls-9" x1="493.63" y1="234.26" x2="493.63" y2="259.48"/><line class="cls-9" x1="437.51" y1="259.48" x2="493.63" y2="259.48"/><line class="cls-9" x1="437.51" y1="234.26" x2="437.51" y2="259.48"/><line class="cls-9" x1="493.63" y1="234.26" x2="549.76" y2="234.26"/><line class="cls-9" x1="493.63" y1="259.48" x2="549.76" y2="259.48"/><line class="cls-9" x1="493.63" y1="234.26" x2="493.63" y2="259.48"/><line class="cls-9" x1="44.62" y1="259.48" x2="100.75" y2="259.48"/><line class="cls-9" x1="44.62" y1="284.71" x2="100.75" y2="284.71"/><line class="cls-9" x1="100.75" y1="259.48" x2="156.88" y2="259.48"/><line class="cls-9" x1="156.88" y1="259.48" x2="156.88" y2="284.71"/><line class="cls-9" x1="100.75" y1="284.71" x2="156.88" y2="284.71"/><line class="cls-9" x1="156.88" y1="259.48" x2="213" y2="259.48"/><line class="cls-9" x1="156.88" y1="284.71" x2="213" y2="284.71"/><line class="cls-9" x1="156.88" y1="259.48" x2="156.88" y2="284.71"/><line class="cls-9" x1="213" y1="259.48" x2="269.13" y2="259.48"/><line class="cls-9" x1="269.13" y1="259.48" x2="269.13" y2="284.71"/><line class="cls-9" x1="213" y1="284.71" x2="269.13" y2="284.71"/><line class="cls-9" x1="269.13" y1="259.48" x2="325.25" y2="259.48"/><line class="cls-9" x1="269.13" y1="284.71" x2="325.25" y2="284.71"/><line class="cls-9" x1="325.25" y1="259.48" x2="381.38" y2="259.48"/><line class="cls-9" x1="381.38" y1="259.48" x2="381.38" y2="284.71"/><line class="cls-9" x1="325.25" y1="284.71" x2="381.38" y2="284.71"/><line class="cls-9" x1="381.38" y1="259.48" x2="437.51" y2="259.48"/><line class="cls-9" x1="437.51" y1="259.48" x2="437.51" y2="284.71"/><line class="cls-9" x1="381.38" y1="284.71" x2="437.51" y2="284.71"/><line class="cls-9" x1="381.38" y1="259.48" x2="381.38" y2="284.71"/><line class="cls-9" x1="437.51" y1="259.48" x2="493.63" y2="259.48"/><line class="cls-9" x1="493.63" y1="259.48" x2="493.63" y2="284.71"/><line class="cls-9" x1="437.51" y1="284.71" x2="493.63" y2="284.71"/><line class="cls-9" x1="437.51" y1="259.48" x2="437.51" y2="284.71"/><line class="cls-9" x1="493.63" y1="259.48" x2="549.76" y2="259.48"/><line class="cls-9" x1="493.63" y1="284.71" x2="549.76" y2="284.71"/><line class="cls-9" x1="493.63" y1="259.48" x2="493.63" y2="284.71"/><line class="cls-9" x1="44.62" y1="284.71" x2="100.75" y2="284.71"/><line class="cls-9" x1="44.62" y1="309.93" x2="100.75" y2="309.93"/><line class="cls-9" x1="100.75" y1="284.71" x2="156.88" y2="284.71"/><line class="cls-9" x1="156.88" y1="284.71" x2="156.88" y2="309.93"/><line class="cls-9" x1="100.75" y1="309.93" x2="156.88" y2="309.93"/><line class="cls-9" x1="156.88" y1="284.71" x2="213" y2="284.71"/><line class="cls-9" x1="156.88" y1="309.93" x2="213" y2="309.93"/><line class="cls-9" x1="156.88" y1="284.71" x2="156.88" y2="309.93"/><line class="cls-9" x1="213" y1="284.71" x2="269.13" y2="284.71"/><line class="cls-9" x1="269.13" y1="284.71" x2="269.13" y2="309.93"/><line class="cls-9" x1="213" y1="309.93" x2="269.13" y2="309.93"/><line class="cls-9" x1="269.13" y1="284.71" x2="325.25" y2="284.71"/><line class="cls-9" x1="269.13" y1="309.93" x2="325.25" y2="309.93"/><line class="cls-9" x1="325.25" y1="284.71" x2="381.38" y2="284.71"/><line class="cls-9" x1="381.38" y1="284.71" x2="381.38" y2="309.93"/><line class="cls-9" x1="325.25" y1="309.93" x2="381.38" y2="309.93"/><line class="cls-9" x1="381.38" y1="284.71" x2="437.51" y2="284.71"/><line class="cls-9" x1="437.51" y1="284.71" x2="437.51" y2="309.93"/><line class="cls-9" x1="381.38" y1="309.93" x2="437.51" y2="309.93"/><line class="cls-9" x1="381.38" y1="284.71" x2="381.38" y2="309.93"/><line class="cls-9" x1="437.51" y1="284.71" x2="493.63" y2="284.71"/><line class="cls-9" x1="493.63" y1="284.71" x2="493.63" y2="309.93"/><line class="cls-9" x1="437.51" y1="309.93" x2="493.63" y2="309.93"/><line class="cls-9" x1="437.51" y1="284.71" x2="437.51" y2="309.93"/><line class="cls-9" x1="493.63" y1="284.71" x2="549.76" y2="284.71"/><line class="cls-9" x1="493.63" y1="309.93" x2="549.76" y2="309.93"/><line class="cls-9" x1="493.63" y1="284.71" x2="493.63" y2="309.93"/><line class="cls-9" x1="44.62" y1="309.93" x2="100.75" y2="309.93"/><line class="cls-9" x1="44.62" y1="335.15" x2="100.75" y2="335.15"/><line class="cls-9" x1="100.75" y1="309.93" x2="156.88" y2="309.93"/><line class="cls-9" x1="156.88" y1="309.93" x2="156.88" y2="335.15"/><line class="cls-9" x1="100.75" y1="335.15" x2="156.88" y2="335.15"/><line class="cls-9" x1="156.88" y1="309.93" x2="213" y2="309.93"/><line class="cls-9" x1="156.88" y1="335.15" x2="213" y2="335.15"/><line class="cls-9" x1="156.88" y1="309.93" x2="156.88" y2="335.15"/><line class="cls-9" x1="213" y1="309.93" x2="269.13" y2="309.93"/><line class="cls-9" x1="269.13" y1="309.93" x2="269.13" y2="335.15"/><line class="cls-9" x1="213" y1="335.15" x2="269.13" y2="335.15"/><line class="cls-9" x1="269.13" y1="309.93" x2="325.25" y2="309.93"/><line class="cls-9" x1="269.13" y1="335.15" x2="325.25" y2="335.15"/><line class="cls-9" x1="325.25" y1="309.93" x2="381.38" y2="309.93"/><line class="cls-9" x1="381.38" y1="309.93" x2="381.38" y2="335.15"/><line class="cls-9" x1="325.25" y1="335.15" x2="381.38" y2="335.15"/><line class="cls-9" x1="381.38" y1="309.93" x2="437.51" y2="309.93"/><line class="cls-9" x1="437.51" y1="309.93" x2="437.51" y2="335.15"/><line class="cls-9" x1="381.38" y1="335.15" x2="437.51" y2="335.15"/><line class="cls-9" x1="381.38" y1="309.93" x2="381.38" y2="335.15"/><line class="cls-9" x1="437.51" y1="309.93" x2="493.63" y2="309.93"/><line class="cls-9" x1="493.63" y1="309.93" x2="493.63" y2="335.15"/><line class="cls-9" x1="437.51" y1="335.15" x2="493.63" y2="335.15"/><line class="cls-9" x1="437.51" y1="309.93" x2="437.51" y2="335.15"/><line class="cls-9" x1="493.63" y1="309.93" x2="549.76" y2="309.93"/><line class="cls-9" x1="493.63" y1="335.15" x2="549.76" y2="335.15"/><line class="cls-9" x1="493.63" y1="309.93" x2="493.63" y2="335.15"/><line class="cls-9" x1="44.62" y1="335.15" x2="100.75" y2="335.15"/><line class="cls-9" x1="44.4" y1="360.37" x2="100.75" y2="360.37"/><line class="cls-9" x1="100.75" y1="335.15" x2="156.88" y2="335.15"/><line class="cls-9" x1="156.88" y1="335.15" x2="156.88" y2="360.37"/><line class="cls-9" x1="100.75" y1="360.37" x2="156.88" y2="360.37"/><line class="cls-9" x1="156.88" y1="335.15" x2="213" y2="335.15"/><line class="cls-9" x1="156.88" y1="360.37" x2="213" y2="360.37"/><line class="cls-9" x1="156.88" y1="335.15" x2="156.88" y2="360.37"/><line class="cls-9" x1="213" y1="335.15" x2="269.13" y2="335.15"/><line class="cls-9" x1="269.13" y1="335.15" x2="269.13" y2="360.37"/><line class="cls-9" x1="213" y1="360.37" x2="269.13" y2="360.37"/><line class="cls-9" x1="269.13" y1="335.15" x2="325.25" y2="335.15"/><line class="cls-9" x1="269.13" y1="360.37" x2="325.25" y2="360.37"/><line class="cls-9" x1="269.13" y1="183.82" x2="269.13" y2="209.04"/><line class="cls-9" x1="269.13" y1="158.2" x2="269.13" y2="183.42"/><line class="cls-9" x1="269.13" y1="209.04" x2="269.13" y2="234.26"/><line class="cls-9" x1="269.13" y1="234.26" x2="269.13" y2="259.48"/><line class="cls-9" x1="269.13" y1="259.48" x2="269.13" y2="284.71"/><line class="cls-9" x1="269.13" y1="284.71" x2="269.13" y2="309.93"/><line class="cls-9" x1="269.13" y1="309.93" x2="269.13" y2="335.15"/><line class="cls-9" x1="269.13" y1="335.15" x2="269.13" y2="360.37"/><line class="cls-9" x1="325.25" y1="335.15" x2="381.38" y2="335.15"/><line class="cls-9" x1="381.38" y1="335.15" x2="381.38" y2="360.37"/><line class="cls-13" x1="325.25" y1="359.69" x2="381.38" y2="359.69"/><line class="cls-9" x1="381.38" y1="335.15" x2="437.51" y2="335.15"/><line class="cls-9" x1="437.51" y1="335.15" x2="437.51" y2="360.37"/><line class="cls-9" x1="381.38" y1="360.37" x2="437.51" y2="360.37"/><line class="cls-9" x1="381.38" y1="335.15" x2="381.38" y2="360.37"/><line class="cls-9" x1="437.51" y1="335.15" x2="493.63" y2="335.15"/><line class="cls-9" x1="493.63" y1="335.15" x2="493.63" y2="360.37"/><line class="cls-9" x1="437.51" y1="360.37" x2="493.63" y2="360.37"/><line class="cls-9" x1="437.51" y1="335.15" x2="437.51" y2="360.37"/><line class="cls-9" x1="493.63" y1="335.15" x2="549.76" y2="335.15"/><line class="cls-9" x1="493.63" y1="360.37" x2="549.98" y2="360.37"/><line class="cls-9" x1="493.63" y1="335.15" x2="493.63" y2="360.37"/><line class="cls-13" x1="325.25" y1="284.72" x2="381.38" y2="284.72"/><line class="cls-13" x1="325.25" y1="208.95" x2="381.38" y2="208.95"/><line class="cls-13" x1="325.25" y1="259.6" x2="381.38" y2="259.6"/><line class="cls-13" x1="325.25" y1="234.26" x2="381.38" y2="234.26"/><line class="cls-13" x1="325.25" y1="334.97" x2="381.38" y2="334.97"/><line class="cls-13" x1="325.25" y1="309.84" x2="381.38" y2="309.84"/><line class="cls-9" x1="213.49" y1="183.82" x2="213.49" y2="209.04"/><line class="cls-9" x1="213.49" y1="158.2" x2="213.49" y2="183.42"/><line class="cls-9" x1="213.49" y1="209.04" x2="213.49" y2="234.26"/><line class="cls-9" x1="213.49" y1="234.26" x2="213.49" y2="259.48"/><line class="cls-9" x1="213.49" y1="259.48" x2="213.49" y2="284.71"/><line class="cls-9" x1="213.49" y1="284.71" x2="213.49" y2="309.93"/><line class="cls-9" x1="213.49" y1="309.93" x2="213.49" y2="335.15"/><line class="cls-9" x1="213.49" y1="335.15" x2="213.49" y2="360.37"/><line class="cls-9" x1="269.13" y1="183.82" x2="269.13" y2="209.04"/><line class="cls-9" x1="269.13" y1="158.2" x2="269.13" y2="183.42"/><line class="cls-9" x1="269.13" y1="209.04" x2="269.13" y2="234.26"/><line class="cls-9" x1="269.13" y1="234.26" x2="269.13" y2="259.48"/><line class="cls-9" x1="269.13" y1="259.48" x2="269.13" y2="284.71"/><line class="cls-9" x1="269.13" y1="284.71" x2="269.13" y2="309.93"/><line class="cls-9" x1="269.13" y1="309.93" x2="269.13" y2="335.15"/><line class="cls-9" x1="269.13" y1="335.15" x2="269.13" y2="360.37"/></g><text class="cls-14" transform="translate(165.06 146.62)">3</text><text class="cls-14" transform="translate(221.29 146.81)">2</text><text class="cls-14" transform="translate(277.42 147.11)">1</text><text class="cls-14" transform="translate(333.18 147.11)">0</text><text class="cls-14" transform="translate(388.31 147.11)">1</text><text class="cls-14" transform="translate(445.69 147.11)">2</text><text class="cls-14" transform="translate(501.59 147.11)">3</text><text class="cls-15" transform="translate(50.46 172.16)">Respiratory Rate <tspan class="cls-16" x="60.14" y="0">Breaths/min</tspan></text><text class="cls-17" transform="translate(51.65 199.44)">SpO</text><text class="cls-17" transform="translate(65.92 202.1) scale(0.58)">2</text><text class="cls-17" transform="translate(68.31 199.44)"><tspan xml:space="preserve"> Scale 1 </tspan><tspan class="cls-18" x="27.31" y="0">(%)</tspan></text><text class="cls-17" transform="translate(53.64 223.58)">SpO</text><text class="cls-17" transform="translate(67.9 226.25) scale(0.58)">2</text><text class="cls-17" transform="translate(70.29 223.58)"><tspan xml:space="preserve"> Scale 2 </tspan><tspan class="cls-18" x="27.31" y="0">(%)</tspan></text><text class="cls-17" transform="translate(51.65 248.73)">Air or Oxygen?</text><text class="cls-17" transform="translate(51.65 274.71)">Systolic BP <tspan class="cls-19" x="39.64" y="0">(mmHg)</tspan></text><text class="cls-17" transform="translate(51.65 299.48)"><tspan xml:space="preserve">Pulse  </tspan><tspan class="cls-19" x="21.98" y="0">(per minute)</tspan></text><text class="cls-17" transform="translate(51.65 324.54)">Consciousness </text><text class="cls-17" transform="translate(51.65 349.53)">Temperature <tspan class="cls-19" x="46.82" y="0">(°C)</tspan></text><text class="cls-17" transform="translate(50.83 145.93)">Physiological parameters</text><text class="cls-14" transform="translate(444.89 172.22)">21 - 24</text><text class="cls-14" transform="translate(276.54 172.22)">9 - 11</text><text class="cls-14" transform="translate(165.27 172.22)">≤ 8</text><text class="cls-14" transform="translate(165.27 198.31)">≤ 91</text><text class="cls-14" transform="translate(165.27 224.44)">≤ 83</text><text class="cls-14" transform="translate(165.27 274.92)">≤ 90</text><text class="cls-14" transform="translate(165.27 299.44)">≤ 40</text><text class="cls-14" transform="translate(165.27 350.11)">≤ 35.0</text><text class="cls-14" transform="translate(276.54 198.31)">94 - 95</text><text class="cls-14" transform="translate(221.19 198.31)">92 - 93</text><text class="cls-14" transform="translate(276.54 223.93)">86 - 87</text><text class="cls-14" transform="translate(219.98 223.93)">84 - 85</text><text class="cls-14" transform="translate(276.54 274.92)">101 - 110</text><text class="cls-14" transform="translate(220.29 274.92)">91 - 100</text><text class="cls-14" transform="translate(276.54 299.44)">41 - 50</text><text class="cls-14" transform="translate(276.54 350.11)">35.1 - 36.0</text><text class="cls-20" transform="translate(333.51 172.22)">12 - 20</text><text class="cls-20" transform="translate(333.51 274.92)">111 - 219</text><text class="cls-20" transform="translate(333.51 299.44)">51 - 90</text><text class="cls-20" transform="translate(333.51 325.01)">Alert</text><text class="cls-20" transform="translate(333.07 350.11)">36.1-38.0</text><text class="cls-20" transform="translate(333.51 198.31)">≥96</text><text class="cls-20" transform="translate(333.11 218.77)">88-92<tspan x="0" y="9.6">≥93 on air</tspan></text><text class="cls-20" transform="translate(333.22 248.98)">Air</text><text class="cls-14" transform="translate(221.19 248.98)">Oxygen</text><text class="cls-14" transform="translate(444.89 299.44)">111 - 130</text><text class="cls-14" transform="translate(388.91 299.44)">91 - 110</text><text class="cls-14" transform="translate(389.9 350.11)">38.1-39.0</text><text class="cls-14" transform="translate(444.07 218.77)">95-96 on<tspan x="0" y="9.6">Oxygen</tspan></text><text class="cls-14" transform="translate(390.47 218.77)">93-94 on<tspan x="0" y="9.6">Oxygen</tspan></text><text class="cls-14" transform="translate(500.51 218.77)">≥ 97on<tspan x="0" y="9.6">Oxygen</tspan></text><text class="cls-14" transform="translate(500.78 172.22)">≥ 25</text><text class="cls-14" transform="translate(500.78 274.92)">≥ 220</text><text class="cls-14" transform="translate(445.27 350.11)">≥ 39.1</text><text class="cls-14" transform="translate(500.78 299.44)">≥ 131</text><text class="cls-14" transform="translate(165.27 325.01)">CVPU</text><use width="504.94" height="42.29" transform="translate(45.29 28.14)" xlink:href="#Header-blank"/></g></g></svg>