<svg xmlns="http://www.w3.org/2000/svg" width="561" height="119" viewBox="0 0 561 119">
  <g fill="none" fill-rule="evenodd">
    <rect width="561" height="119" fill="#FFF"/>
    <path fill="#1A1919" d="M18 89.2464805C16.2700438 89.7265174 14.5138069 89.9780752 12.729004 90 8.91258808 90 5.8640259 88.9914609 3.58331746 86.9743826 1.21576843 85.0138472.0217101504 81.9939995 0 77.9148396.162254809 69.3953381 4.40487526 65.0900069 12.7301466 65 14.383546 65 16.1294991 65.3311793 17.9680061 65.9946919L17.6434965 70.07039C16.7785184 69.5626587 15.9352504 69.2084006 15.1148353 69.0053081 14.2921348 68.8587584 13.4602933 68.7860605 12.6170253 68.7860605 10.2071986 68.8079852 8.32641402 69.644588 6.97467149 71.293561 5.55894115 72.9333026 4.85050467 75.0253866 4.85050467 77.5686591 4.85050467 80.1003923 5.54751476 82.1520886 6.94267759 83.723748 8.31498762 85.3623356 10.2449057 86.1931687 12.7312893 86.2150935 13.6819653 86.2150935 14.6326414 86.1135472 15.5844601 85.9093007 16.5145687 85.7177475 17.254999 85.4869605 17.8057513 85.2157858L18 89.2464805M22 63L26.5354881 63 26.5354881 73.5791111 26.6007134 73.5791111C27.8120405 71.7290667 29.6406785 70.7815111 32.0854626 70.7364444 34.134236 70.7584 35.6425712 71.4182222 36.6127976 72.7159111 37.5375992 74.0032 38 75.6729778 38 77.7264L38 89 33.4656766 89 33.4656766 79.4574222C33.4656766 78.8819556 33.4482056 78.2891556 33.4155929 77.6778667 33.3934629 77.0804444 33.2839776 76.5373333 33.0848075 76.0508444 32.9310621 75.5204444 32.6503603 75.0905778 32.2438669 74.7635556 31.8152435 74.4700444 31.2375337 74.3232889 30.5119022 74.3232889 29.7082332 74.3232889 29.0594744 74.5208889 28.5644609 74.9160889 28.0694475 75.3008889 27.6629541 75.7966222 27.343816 76.4079111 27.0468079 77.0064889 26.8429788 77.6385778 26.7323287 78.3053333 26.6007134 79.0067556 26.5343234 79.6561778 26.5343234 80.2547556L26.5343234 89 22 89 22 63M54.7738407 78.7287737C54.7295054 77.5303321 54.4282534 76.5269309 53.8678108 75.7197452 53.2971371 74.901985 52.397928 74.4754808 51.1701837 74.4402325 49.9515338 74.4754808 49.0091264 74.8773112 48.3418246 75.6504236 47.684754 76.4576093 47.3130203 77.4833344 47.2266235 78.7287737L54.7738407 78.7287737zM57.7408894 88.563045C56.1800626 89.5206233 54.2315869 90 51.8965991 90 46.0295728 89.896605 43.0647976 86.7595078 43 80.5863583 43 77.8781151 43.6616178 75.6116505 44.9859901 73.7869643 46.2989945 71.9752025 48.2690694 71.0458228 50.8950781 71 54.0053637 71.0223239 56.1527794 72.0433492 57.3361885 74.0630759 58.4684416 76.0816276 59.0220634 78.7146744 58.9993274 81.9622163L47.2266235 81.9622163C47.3346195 83.4250201 47.8291277 84.5435656 48.7124215 85.3143281 49.5957153 86.1450127 50.7211476 86.5597675 52.0887184 86.5597675 53.1652682 86.5597675 54.1770205 86.3694268 55.1251119 85.9887453 56.0504674 85.6550615 56.92353 85.2285573 57.7408894 84.7092326L57.7408894 88.563045 57.7408894 88.563045z"/>
    <polygon fill="#1A1919" points="63 89 68 89 68 63 63 63"/>
    <path fill="#1A1919" d="M82.8342966 75.2333189C82.1545964 74.9677818 81.491331 74.7680416 80.8468485 74.6293983 80.2129312 74.5036794 79.4581001 74.4402325 78.5823551 74.4402325 77.9237854 74.4402325 77.3133466 74.5718261 76.7498645 74.8361882 76.1265126 75.1463731 75.8036843 75.6856719 75.7802059 76.4540845 75.8036843 77.142601 76.239209 77.6243275 77.0879538 77.8992641 77.4882608 78.0602313 77.9355247 78.2153237 78.4285714 78.3645415 78.9216182 78.5020098 79.414665 78.6629769 79.9077118 78.846268 80.4465414 79.0189846 80.9618927 79.2304743 81.4549395 79.483087 81.9256818 79.7697731 82.3494672 80.1022819 82.7274697 80.4817884 83.1289507 80.8718694 83.4447354 81.3535959 83.67365 81.926968 83.8908254 82.5120895 84 83.2299796 84 84.0794632 83.9436518 86.1685115 83.1723858 87.6830128 81.6862019 88.622967 80.1988441 89.5417723 78.4579195 90 76.4599061 90 74.6790681 89.9776761 72.914665 89.7203636 71.1678707 89.2280626L71.4425682 85.3531012C72.9264042 86.157937 74.4853711 86.5597675 76.1182951 86.5597675 76.773343 86.5597675 77.44013 86.3929256 78.1186563 86.0604168 78.8324002 85.7619813 79.1998375 85.1874343 79.2233159 84.3367757 79.2233159 83.8667986 79.1141412 83.4755426 78.8957919 83.1653577 78.6657034 82.8904211 78.3499187 82.6648321 77.9472639 82.4932905 77.1196496 82.1713561 76.1781651 81.8670459 75.1204623 81.579185 74.6250677 81.4193927 74.1320209 81.2184775 73.6378003 80.9776142 73.1435796 80.7461505 72.6951418 80.4430153 72.2936608 80.0635088 71.9027452 79.6840022 71.5975257 79.2140251 71.3791764 78.6500526 71.1267835 78.1107538 71 77.4386865 71 76.6338507 71.0234784 74.6587719 71.7560051 73.2288665 73.1987538 72.3429596 74.5511107 71.4464783 76.164078 71 78.0388297 71 79.1411414 71 80.0955391 71.0563973 80.9020228 71.1715416 81.6979411 71.30901 82.442207 71.4758518 83.1348203 71.6708923L82.8342966 75.2333189M98.7738407 78.7287737C98.7295054 77.5303321 98.4282534 76.5269309 97.8678108 75.7197452 97.2971371 74.901985 96.397928 74.4754808 95.1701837 74.4402325 93.9515338 74.4754808 93.0091264 74.8773112 92.3418246 75.6504236 91.684754 76.4576093 91.3130203 77.4833344 91.2266235 78.7287737L98.7738407 78.7287737zM101.740889 88.563045C100.180063 89.5206233 98.2327237 90 95.8965991 90 90.0295728 89.896605 87.0647976 86.7595078 87 80.5863583 87 77.8781151 87.6616178 75.6116505 88.9859901 73.7869643 90.2989945 71.9752025 92.2690694 71.0458228 94.8950781 71 98.0053637 71.0223239 100.152779 72.0433492 101.336189 74.0630759 102.468442 76.0816276 103.022063 78.7146744 102.999327 81.9622163L91.2266235 81.9622163C91.3346195 83.4250201 91.8291277 84.5435656 92.7124215 85.3143281 93.5957153 86.1450127 94.7211476 86.5597675 96.0887184 86.5597675 97.1652682 86.5597675 98.1770205 86.3694268 99.1251119 85.9887453 100.050467 85.6550615 100.92353 85.2285573 101.740889 84.7092326L101.740889 88.563045 101.740889 88.563045zM111.398817 84.3313119C111.398817 85.0796963 111.685207 85.6330542 112.256805 85.9902109 112.783432 86.3696899 113.472189 86.5600169 114.323077 86.5600169 115.745562 86.5365197 116.821302 85.9960852 117.550296 84.9363636 118.222485 83.8778169 118.546746 82.6265935 118.52426 81.1873929L116.525444 81.1873929C116.267456 81.1873929 116.00355 81.1873929 115.734911 81.1873929 115.454438 81.1873929 115.179882 81.2108901 114.911243 81.2567095 114.306509 81.3260261 113.740828 81.4646593 113.214201 81.6702594 112.687574 81.8899578 112.267456 82.2130436 111.953846 82.6383421 111.584615 83.0530668 111.398817 83.6181734 111.398817 84.3313119zM108.913609 72.3771356C110.895858 71.4830689 112.950296 71.0236996 115.078107 71.0013773 120.24142 70.9320607 122.788166 73.479152 122.719527 78.6414765L122.719527 80.9653448C122.719527 82.7323307 122.745562 84.2467222 122.798817 85.5085193 122.842604 86.8513816 122.910059 88.2048175 123 89.5700021L118.932544 89.5700021C118.797633 88.4691605 118.731361 87.5621704 118.731361 86.8513816L118.663905 86.8513816C118.114793 87.8370871 117.346746 88.6007446 116.360947 89.1400042 115.352663 89.7133347 114.293491 90 113.184615 90 111.582249 89.9776777 110.170414 89.5065598 108.949112 88.588996 107.671006 87.6714322 107.021302 86.3403185 107 84.5968298 107 83.2316452 107.295858 82.1296288 107.889941 81.2919553 108.439053 80.4448829 109.150296 79.8186838 110.023669 79.4168825 110.942012 78.9704366 111.915976 78.677897 112.946746 78.5392638 113.998817 78.4253027 115.007101 78.3677346 115.970414 78.3677346L118.52426 78.3677346C118.52426 76.9097363 118.2 75.888785 117.550296 75.3025311 116.911243 74.7280257 115.902959 74.4413604 114.525444 74.4413604 112.508876 74.4766062 110.688757 75.1357013 109.065089 76.4221704L108.913609 72.3771356 108.913609 72.3771356zM140.399675 84.3313119C140.399675 85.0796963 140.684861 85.6330542 141.256416 85.9902109 141.783004 86.3696899 142.471711 86.5600169 143.323719 86.5600169 144.746099 86.5365197 145.821759 85.9960852 146.549516 84.9363636 147.222839 83.8778169 147.547075 82.6265935 147.523408 81.1873929L145.524739 81.1873929C145.26677 81.1873929 145.004068 81.1873929 144.735449 81.1873929 144.454996 81.1873929 144.18046 81.2108901 143.911841 81.2567095 143.307152 81.3260261 142.74033 81.4646593 142.214925 81.6702594 141.688337 81.8899578 141.268249 82.2130436 140.954663 82.6383421 140.584276 83.0530668 140.399675 83.6181734 140.399675 84.3313119zM137.914651 72.3771356C139.89557 71.4830689 141.951039 71.0236996 144.077509 71.0013773 149.241624 70.9320607 151.788181 73.479152 151.718364 78.6414765L151.718364 80.9653448C151.718364 82.7323307 151.745581 84.2467222 151.797648 85.5085193 151.842615 86.8513816 151.910066 88.2048175 152 89.5700021L147.932845 89.5700021C147.797944 88.4691605 147.730493 87.5621704 147.730493 86.8513816L147.664226 86.8513816C147.113971 87.8370871 146.347164 88.6007446 145.361438 89.1400042 144.353228 89.7133347 143.294135 90 142.185341 90 140.583093 89.9776777 139.17018 89.5065598 137.950152 88.588996 136.67214 87.6714322 136.022484 86.3403185 136 84.5968298 136 83.2316452 136.297019 82.1296288 136.891058 81.2919553 137.438947 80.4448829 138.150137 79.8186838 139.023445 79.4168825 139.94172 78.9704366 140.916796 78.677897 141.947489 78.5392638 142.999482 78.4253027 144.007692 78.3677346 144.970934 78.3677346L147.523408 78.3677346C147.523408 76.9097363 147.199172 75.888785 146.549516 75.3025311 145.911693 74.7280257 144.903483 74.4413604 143.526071 74.4413604 141.509652 74.4766062 139.689668 75.1357013 138.066119 76.4221704L137.914651 72.3771356 137.914651 72.3771356zM157 71.4001446L161.293223 71.4001446 161.293223 73.8019885 161.358448 73.8019885C162.810876 71.9114902 164.721045 70.9776296 167.088957 71.0004067 169.135401 71.022045 170.643736 71.6723308 171.612798 72.9512643 172.537599 74.219948 173 75.8655926 173 77.8893368L173 89 168.464512 89 168.464512 79.5953406C168.464512 79.0281912 168.448206 78.4439589 168.415593 77.8415049 168.393463 77.2527172 168.283978 76.7174557 168.084807 76.237998 167.931062 75.7152638 167.65036 75.29161 167.243867 74.9693142 166.814079 74.6800452 166.237534 74.5354107 165.511902 74.5354107 164.708233 74.5354107 164.059474 74.7301548 163.564461 75.119643 163.068283 75.4988815 162.661789 75.98745 162.342651 76.589904 162.046808 77.1798305 161.842979 77.8027839 161.732329 78.4599028 161.600713 79.1511874 161.534323 79.7912236 161.534323 80.3811502L161.534323 89 157 89 157 71.4001446M181.704875 80.3998399C181.682909 81.7199418 181.955749 83.0199706 182.52455 84.3046493 182.807795 84.8726001 183.195088 85.3460892 183.686431 85.7274782 184.155807 86.1324826 184.761604 86.3343945 185.50382 86.3343945 186.289968 86.3343945 186.928135 86.1324826 187.419478 85.7274782 187.932786 85.3460892 188.330485 84.8726001 188.614886 84.3046493 188.930501 83.7142638 189.154784 83.0719245 189.285424 82.3776312 189.395253 81.6963264 189.44959 81.0362755 189.44959 80.3998399 189.44959 79.0242418 189.149004 77.7277554 188.548988 76.5127421 188.21025 75.9247182 187.795211 75.4488676 187.305024 75.0899132 186.791716 74.7427666 186.169734 74.570374 185.437922 74.570374 184.029792 74.6164241 183.047107 75.2646673 182.491023 76.5127421 182.218183 77.0925007 182.027427 77.7218515 181.917597 78.4043371 181.776553 79.0868227 181.704875 79.7527775 181.704875 80.3998399zM189.629941 87.52225L189.564044 87.52225C188.175567 89.1977639 186.404422 90.0231227 184.249451 89.9995073 181.625104 89.9416496 179.75569 88.9627905 178.640054 87.0593878 177.524417 85.1914082 176.977582 82.971559 177.000704 80.3998399 176.977582 77.7950593 177.524417 75.5752101 178.640054 73.7414729 179.75569 71.8959279 181.625104 70.9513112 184.249451 70.9052612 186.426388 70.9052612 188.147821 71.7518739 189.417219 73.4486417L189.499302 73.4486417 189.499302 63 194 63 194 89.5673452 189.629941 89.5673452 189.629941 87.52225 189.629941 87.52225z"/>
    <polyline fill="#1A1919" points="207 65 212.115 65 216.622 84.198 216.689 84.198 220.824 65 227.413 65 231.682 84.198 231.75 84.198 236.291 65 241 65 234.698 89 228.446 89 224.076 69.803 224.009 69.803 219.705 89 213.42 89 207 65"/>
    <path fill="#1A1919" d="M254.773841 78.7287737C254.729505 77.5303321 254.428253 76.5269309 253.867811 75.7197452 253.297137 74.901985 252.397928 74.4754808 251.170184 74.4402325 249.951534 74.4754808 249.009126 74.8773112 248.341825 75.6504236 247.684754 76.4576093 247.31302 77.4833344 247.226623 78.7287737L254.773841 78.7287737zM257.740889 88.563045C256.180063 89.5206233 254.231587 90 251.896599 90 246.029573 89.896605 243.064798 86.7595078 243 80.5863583 243 77.8781151 243.661618 75.6116505 244.98599 73.7869643 246.298994 71.9752025 248.269069 71.0458228 250.895078 71 254.005364 71.0223239 256.152779 72.0433492 257.336189 74.0630759 258.468442 76.0816276 259.022063 78.7146744 258.999327 81.9622163L247.226623 81.9622163C247.33462 83.4250201 247.829128 84.5435656 248.712421 85.3143281 249.595715 86.1450127 250.721148 86.5597675 252.088718 86.5597675 253.165268 86.5597675 254.177021 86.3694268 255.125112 85.9887453 256.050467 85.6550615 256.92353 85.2285573 257.740889 84.7092326L257.740889 88.563045 257.740889 88.563045zM273.83547 75.2333189C273.154596 74.9677818 272.492505 74.7680416 271.846848 74.6293983 271.212931 74.5036794 270.4581 74.4402325 269.582355 74.4402325 268.923785 74.4402325 268.313347 74.5718261 267.748691 74.8361882 267.126513 75.1463731 266.803684 75.6856719 266.780206 76.4540845 266.803684 77.142601 267.239209 77.6243275 268.087954 77.8992641 268.488261 78.0602313 268.935525 78.2153237 269.428571 78.3645415 269.921618 78.5020098 270.414665 78.6629769 270.907712 78.846268 271.446541 79.0189846 271.961893 79.2304743 272.454939 79.483087 272.925682 79.7697731 273.349467 80.1022819 273.72747 80.4817884 274.128951 80.8718694 274.444735 81.3535959 274.67365 81.926968 274.890825 82.5120895 275 83.2299796 275 84.0794632 274.943652 86.1685115 274.172386 87.6830128 272.686202 88.622967 271.198844 89.5417723 269.457919 90 267.459906 90 265.679068 89.9776761 263.914665 89.7203636 262.167871 89.2280626L262.442568 85.3531012C263.926404 86.157937 265.485371 86.5597675 267.118295 86.5597675 267.773343 86.5597675 268.44013 86.3929256 269.118656 86.0604168 269.8324 85.7619813 270.199837 85.1874343 270.223316 84.3367757 270.223316 83.8667986 270.114141 83.4755426 269.895792 83.1653577 269.665703 82.8904211 269.349919 82.6648321 268.947264 82.4932905 268.11965 82.1713561 267.178165 81.8670459 266.120462 81.579185 265.625068 81.4193927 265.132021 81.2184775 264.6378 80.9776142 264.14358 80.7461505 263.695142 80.4430153 263.293661 80.0635088 262.902745 79.6840022 262.597526 79.2140251 262.379176 78.6500526 262.126783 78.1107538 262 77.4386865 262 76.6338507 262.023478 74.6587719 262.756005 73.2288665 264.198754 72.3429596 265.551111 71.4464783 267.164078 71 269.03883 71 270.141141 71 271.095539 71.0563973 271.902023 71.1715416 272.697941 71.30901 273.442207 71.4758518 274.13482 71.6708923L273.83547 75.2333189M280.282922 74.6839604L277 74.6839604 277 71.2039604 280.282922 71.2039604 280.282922 67.5314851 284.738724 66 284.738724 71.2039604 288.70821 71.2039604 288.70821 74.6839604 284.738724 74.6839604 284.738724 83.2740594C284.715839 84.0772277 284.856584 84.7639604 285.162105 85.3354455 285.45504 85.9627723 286.012301 86.2883168 286.837322 86.3120792 287.681797 86.3120792 288.360351 86.1433663 288.869553 85.8059406L289 89.5675248C288.112043 89.8562376 287.013541 90 285.704491 90 282.112616 89.8954455 280.304663 87.9172277 280.282922 84.0594059L280.282922 74.6839604M292 71.4001069L296.300533 71.4001069 296.300533 73.8691485 296.367368 73.8691485C297.127913 72.8009008 297.979492 72.0503941 298.919801 71.6176286 299.861263 71.2053624 300.768154 71.0003682 301.640476 71.0003682 304.115702 70.977591 305.856887 72.011673 306.864033 74.1026141 307.435593 73.0355053 308.235317 72.2508329 309.266661 71.7508748 310.25076 71.2497778 311.297084 71.0003682 312.405635 71.0003682 314.555901 71.0220064 316.044725 71.6722937 316.873257 72.9512299 317.646477 74.2199164 318.020988 75.8655644 317.999093 77.889313L317.999093 89 313.508424 89 313.508424 78.494046C313.531471 77.6023211 313.427761 76.7390676 313.197293 75.9042856 313.023289 75.4931583 312.759404 75.1583344 312.401026 74.9020916 312.032277 74.6572374 311.489525 74.5353797 310.773922 74.5353797 310.000702 74.5353797 309.388809 74.7301242 308.939397 75.1196132 308.443891 75.4988526 308.072837 75.9988107 307.831998 76.6229042 307.600378 77.212832 307.450574 77.8357867 307.381433 78.494046 307.289246 79.2058315 307.243152 79.8583964 307.243152 80.4471854L307.243152 89 302.755941 89 302.755941 78.494046C302.778988 77.6023211 302.675277 76.7390676 302.444809 75.9042856 302.270806 75.4931583 302.012681 75.1583344 301.665827 74.9020916 301.285555 74.6572374 300.737041 74.5353797 300.021438 74.5353797 299.248218 74.5353797 298.636326 74.7301242 298.186913 75.1196132 297.691407 75.4988526 297.320353 75.9988107 297.078362 76.6229042 296.847894 77.212832 296.69809 77.8357867 296.628949 78.494046 296.536762 79.2058315 296.490669 79.8583964 296.490669 80.4471854L296.490669 89 292 89 292 71.4001069M323 90L328 90 328 71.8221136 323 71.8221136 323 90zM323 68.514477L328 68.514477 328 64 323 64 323 68.514477zM333 71.4001446L337.294075 71.4001446 337.294075 73.8019885 337.36046 73.8019885C338.812782 71.9114902 340.721648 70.9776296 343.089387 71.0004067 345.135682 71.022045 346.643907 71.6723308 347.612899 72.9512643 348.537633 74.219948 349 75.8655926 349 77.8893368L349 89 344.464842 89 344.464842 79.5953406C344.464842 79.0281912 344.449702 78.4439589 344.415927 77.8415049 344.393798 77.2527172 344.284321 76.7174557 344.085165 76.237998 343.931431 75.7152638 343.65075 75.29161 343.244286 74.9693142 342.814529 74.6800452 342.238026 74.5354107 341.512447 74.5354107 340.708837 74.5354107 340.060125 74.7301548 339.565148 75.119643 339.069006 75.4988815 338.663707 75.98745 338.343427 76.589904 338.046441 77.1798305 337.843791 77.8027839 337.733149 78.4599028 337.601543 79.1511874 337.535158 79.7912236 337.535158 80.3811502L337.535158 89 333 89 333 71.4001446M364.83547 75.2333189C364.154596 74.9677818 363.492505 74.7680416 362.846848 74.6293983 362.212931 74.5036794 361.4581 74.4402325 360.582355 74.4402325 359.924959 74.4402325 359.31452 74.5718261 358.749865 74.8361882 358.126513 75.1463731 357.804858 75.6856719 357.780206 76.4540845 357.803684 77.142601 358.239209 77.6243275 359.087954 77.8992641 359.489435 78.0602313 359.935525 78.2153237 360.428571 78.3645415 360.921618 78.5020098 361.414665 78.6629769 361.907712 78.846268 362.446541 79.0189846 362.963067 79.2304743 363.454939 79.483087 363.925682 79.7697731 364.349467 80.1022819 364.72747 80.4817884 365.128951 80.8718694 365.444735 81.3535959 365.67365 81.926968 365.891999 82.5120895 366 83.2299796 366 84.0794632 365.944826 86.1685115 365.172386 87.6830128 363.686202 88.622967 362.200018 89.5417723 360.457919 90 358.46108 90 356.679068 89.9776761 354.914665 89.7203636 353.167871 89.2280626L353.443742 85.3531012C354.927578 86.157937 356.485371 86.5597675 358.119469 86.5597675 358.773343 86.5597675 359.441304 86.3929256 360.11983 86.0604168 360.8324 85.7619813 361.201011 85.1874343 361.223316 84.3367757 361.223316 83.8667986 361.114141 83.4755426 360.895792 83.1653577 360.666877 82.8904211 360.349919 82.6648321 359.947264 82.4932905 359.11965 82.1713561 358.178165 81.8670459 357.120462 81.579185 356.626242 81.4193927 356.132021 81.2184775 355.6378 80.9776142 355.14358 80.7461505 354.696316 80.4430153 354.293661 80.0635088 353.902745 79.6840022 353.5987 79.2140251 353.379176 78.6500526 353.127957 78.1107538 353 77.4386865 353 76.6338507 353.023478 74.6587719 353.756005 73.2288665 355.198754 72.3429596 356.552285 71.4464783 358.165252 71 360.03883 71 361.142315 71 362.095539 71.0563973 362.903197 71.1715416 363.699115 71.30901 364.442207 71.4758518 365.13482 71.6708923L364.83547 75.2333189M372.284066 74.6839604L369 74.6839604 369 71.2039604 372.284066 71.2039604 372.284066 67.5314851 376.738724 66 376.738724 71.2039604 380.70821 71.2039604 380.70821 74.6839604 376.738724 74.6839604 376.738724 83.2740594C376.716983 84.0772277 376.857729 84.7639604 377.162105 85.3354455 377.45504 85.9627723 378.012301 86.2883168 378.837322 86.3120792 379.681797 86.3120792 380.360351 86.1433663 380.869553 85.8059406L381 89.5675248C380.112043 89.8562376 379.013541 90 377.704491 90 374.112616 89.8954455 372.304663 87.9172277 372.284066 84.0594059L372.284066 74.6839604M394.773841 78.7287737C394.729505 77.5303321 394.42939 76.5269309 393.868948 75.7197452 393.298274 74.901985 392.397928 74.4754808 391.170184 74.4402325 389.951534 74.4754808 389.009126 74.8773112 388.341825 75.6504236 387.684754 76.4576093 387.31302 77.4833344 387.226623 78.7287737L394.773841 78.7287737zM397.742026 88.563045C396.181199 89.5206233 394.232724 90 391.896599 90 386.029573 89.896605 383.064798 86.7595078 383 80.5863583 383 77.8781151 383.661618 75.6116505 384.98599 73.7869643 386.298994 71.9752025 388.269069 71.0458228 390.895078 71 394.0065 71.0223239 396.152779 72.0433492 397.336189 74.0630759 398.468442 76.0816276 399.022063 78.7146744 398.999327 81.9622163L387.226623 81.9622163C387.33462 83.4250201 387.829128 84.5435656 388.713558 85.3143281 389.595715 86.1450127 390.721148 86.5597675 392.088718 86.5597675 393.165268 86.5597675 394.177021 86.3694268 395.125112 85.9887453 396.051604 85.6550615 396.92353 85.2285573 397.742026 84.7092326L397.742026 88.563045 397.742026 88.563045zM404 71.3997469L407.928896 71.3997469 407.928896 75.4029105 407.993639 75.4029105C408.133348 74.4906675 408.616084 73.545397 409.44298 72.567099 410.258519 71.5660234 411.327351 71.0444163 412.648342 71 413.087915 71 413.538846 71.0444163 414 71.133249L414 75.7468523C413.53771 75.5031319 412.877783 75.378994 412.017946 75.378994 411.136529 75.378994 410.453885 75.6295476 409.970014 76.129516 409.486143 76.6078456 409.127215 77.2353686 408.890959 78.0143625 408.664925 78.7364125 408.530895 79.5085732 408.487733 80.3308447 408.444571 81.1314774 408.42299 81.8706106 408.42299 82.5482442L408.42299 89 404 89 404 71.3997469"/>
    <polyline fill="#1A1919" points="427 65 431.748 65 431.748 74.709 441.252 74.709 441.252 65 446 65 446 89 441.252 89 441.252 78.469 431.748 78.469 431.748 89 427 89 427 65"/>
    <path fill="#1A1919" d="M455.675727 80.0517593C455.675727 80.407767 455.702144 80.7649496 455.756126 81.1221322 455.79977 81.5133882 455.853752 81.88702 455.920368 82.2442026 456.050153 83.0032156 456.271822 83.6882073 456.587672 84.2991775 456.913859 84.9077979 457.359495 85.3918743 457.92343 85.749057 458.455207 86.1520623 459.144334 86.3529776 459.993109 86.3529776 460.851072 86.3529776 461.573507 86.1638118 462.159265 85.7831303 462.712864 85.4271226 463.157351 84.9442211 463.495023 84.3332509 463.82121 83.7234556 464.044028 83.0384639 464.162328 82.2782759 464.27144 81.5533362 464.325421 80.8107724 464.325421 80.0517593 464.325421 78.5901305 463.97856 77.3282419 463.283691 76.2696185 462.555513 75.20982 461.458652 74.6693464 459.993109 74.6470224 458.568913 74.6693464 457.499617 75.2215695 456.782925 76.3036918 456.04441 77.3623153 455.675727 78.6124544 455.675727 80.0517593zM451 80.6204316C451.022971 77.5914291 451.886677 75.2274442 453.593415 73.5296518 455.266845 71.8659328 457.397397 71.0223239 459.98392 71 462.603752 71.0223239 464.749234 71.8659328 466.423813 73.5296518 468.108729 75.2274442 468.967841 77.5914291 469 80.6204316 469 83.2711026 468.217841 85.4799951 466.651225 87.247109 465.098392 89.0247975 462.874809 89.9424278 459.98392 90 457.12634 89.9424278 454.919985 89.0247975 453.364855 87.247109 451.789051 85.4799951 451 83.2711026 451 80.6204316L451 80.6204316zM483.834297 75.2333189C483.154596 74.9677818 482.492505 74.7680416 481.846848 74.6293983 481.212931 74.5036794 480.456926 74.4402325 479.581181 74.4402325 478.923785 74.4402325 478.313347 74.5718261 477.747517 74.8361882 477.125339 75.1463731 476.803684 75.6856719 476.780206 76.4540845 476.803684 77.142601 477.238035 77.6243275 478.087954 77.8992641 478.488261 78.0602313 478.935525 78.2153237 479.428571 78.3645415 479.920444 78.5020098 480.414665 78.6629769 480.907712 78.846268 481.446541 79.0189846 481.961893 79.2304743 482.454939 79.483087 482.925682 79.7697731 483.349467 80.1022819 483.72747 80.4817884 484.128951 80.8718694 484.443561 81.3535959 484.67365 81.926968 484.889651 82.5120895 485 83.2299796 485 84.0794632 484.942478 86.1685115 484.171212 87.6830128 482.685028 88.622967 481.198844 89.5417723 479.456746 90 477.459906 90 475.679068 89.9776761 473.914665 89.7203636 472.166697 89.2280626L472.442568 85.3531012C473.926404 86.157937 475.484197 86.5597675 477.117121 86.5597675 477.773343 86.5597675 478.438956 86.3929256 479.117482 86.0604168 479.831226 85.7619813 480.198664 85.1874343 480.222142 84.3367757 480.222142 83.8667986 480.112967 83.4755426 479.895792 83.1653577 479.66453 82.8904211 479.348745 82.6648321 478.947264 82.4932905 478.11965 82.1713561 477.176991 81.8670459 476.119288 81.579185 475.625068 81.4193927 475.130847 81.2184775 474.636626 80.9776142 474.142406 80.7461505 473.693968 80.4430153 473.292487 80.0635088 472.902745 79.6840022 472.597526 79.2140251 472.379176 78.6500526 472.12561 78.1107538 472 77.4386865 472 76.6338507 472.022304 74.6587719 472.756005 73.2288665 474.19758 72.3429596 475.549937 71.4464783 477.162904 71 479.03883 71 480.141141 71 481.094365 71.0563973 481.902023 71.1715416 482.696767 71.30901 483.441033 71.4758518 484.13482 71.6708923L483.834297 75.2333189M497.570741 74.6511039C496.12687 74.6969779 495.092231 75.3427434 494.469136 76.5860478 493.846041 77.7964169 493.535071 79.0879479 493.535071 80.4582881 493.510794 81.8192182 493.812516 83.114278 494.436767 84.3481723 494.753517 84.9139522 495.158125 85.3856316 495.65059 85.7655628 496.143055 86.1690192 496.755746 86.3701592 497.488663 86.3701592 498.231985 86.3701592 498.86086 86.1690192 499.37529 85.7655628 499.866599 85.3856316 500.249242 84.9139522 500.523219 84.3481723 500.8076 83.7376945 501.020308 83.0860478 501.162498 82.3944083 501.251512 81.7145313 501.294285 81.0699421 501.294285 80.4582881 501.294285 79.1326457 501.048052 77.8434672 500.555587 76.5860478 500.282766 76.0002714 499.900123 75.5262396 499.407658 75.1686573 498.915193 74.8228375 498.303658 74.6511039 497.570741 74.6511039zM489 71.4128664L493.295775 71.4128664 493.295775 73.9971046 493.376696 73.9971046C494.338506 72.068042 496.125714 71.0682229 498.737166 71 501.359022 71.045874 503.238712 71.9868802 504.376237 73.825371 505.480237 75.6520992 506.022411 77.8634636 505.999291 80.4582881 506.022411 83.0201773 505.480237 85.2315418 504.375081 87.0923815 503.237556 88.9885089 501.324341 89.9636265 498.635436 90.0212631 497.694435 90.0212631 496.820483 89.8448245 496.010112 89.4895946 495.190493 89.1355411 494.375498 88.4791893 493.567439 87.5181868L493.501546 87.5217155 493.501546 97 489 97 489 71.4128664 489 71.4128664zM510 90L515 90 515 71.8221136 510 71.8221136 510 90zM510 68.514477L515 68.514477 515 64 510 64 510 68.514477zM522.282922 74.6839604L519 74.6839604 519 71.2039604 522.282922 71.2039604 522.282922 67.5314851 526.739868 66 526.739868 71.2039604 530.70821 71.2039604 530.70821 74.6839604 526.739868 74.6839604 526.739868 83.2740594C526.716983 84.0772277 526.858873 84.7639604 527.162105 85.3354455 527.45504 85.9627723 528.013445 86.2883168 528.837322 86.3120792 529.681797 86.3120792 530.360351 86.1433663 530.869553 85.8059406L531 89.5675248C530.112043 89.8562376 529.013541 90 527.705636 90 524.112616 89.8954455 522.305807 87.9172277 522.282922 84.0594059L522.282922 74.6839604M537.400858 84.3313119C537.400858 85.0796963 537.686044 85.6330542 538.256416 85.9902109 538.784188 86.3696899 539.472894 86.5600169 540.324902 86.5600169 541.747282 86.5365197 542.821759 85.9960852 543.549516 84.9363636 544.222839 83.8778169 544.548258 82.6265935 544.524591 81.1873929L542.524739 81.1873929C542.26677 81.1873929 542.004068 81.1873929 541.735449 81.1873929 541.456179 81.1873929 541.18046 81.2108901 540.911841 81.2567095 540.307152 81.3260261 539.741513 81.4646593 539.214925 81.6702594 538.688337 81.8899578 538.268249 82.2130436 537.954663 82.6383421 537.584276 83.0530668 537.400858 83.6181734 537.400858 84.3313119zM534.914651 72.3771356C536.896753 71.4830689 538.951039 71.0236996 541.077509 71.0013773 546.242807 70.9320607 548.789365 73.479152 548.719547 78.6414765L548.719547 80.9653448C548.719547 82.7323307 548.745581 84.2467222 548.798831 85.5085193 548.843799 86.8513816 548.910066 88.2048175 549 89.5700021L544.932845 89.5700021C544.799127 88.4691605 544.730493 87.5621704 544.730493 86.8513816L544.664226 86.8513816C544.115154 87.8370871 543.347164 88.6007446 542.361438 89.1400042 541.353228 89.7133347 540.294135 90 539.185341 90 537.583093 89.9776777 536.171363 89.5065598 534.950152 88.588996 533.67214 87.6714322 533.023667 86.3403185 533 84.5968298 533 83.2316452 533.297019 82.1296288 533.891058 81.2919553 534.44013 80.4448829 535.150137 79.8186838 536.024628 79.4168825 536.942904 78.9704366 537.916796 78.677897 538.946306 78.5392638 539.999482 78.4253027 541.007692 78.3677346 541.970934 78.3677346L544.524591 78.3677346C544.524591 76.9097363 544.199172 75.888785 543.549516 75.3025311 542.911693 74.7280257 541.903483 74.4413604 540.526071 74.4413604 538.509652 74.4766062 536.689668 75.1357013 535.066119 76.4221704L534.914651 72.3771356 534.914651 72.3771356z"/>
    <polygon fill="#1A1919" points="553 89 558 89 558 63 553 63"/>
    <polyline fill="#005EB8" points="323 103 326.893 103 332.921 114.976 332.967 114.976 332.967 103 336 103 336 119 332.13 119 326.079 107.024 326.035 107.024 326.035 119 323 119 323 103"/>
    <polyline fill="#005EB8" points="340.144 102.138 343.31 102.138 343.31 108.842 349.647 108.842 349.647 102.138 352.812 102.138 352.812 118.709 349.647 118.709 349.647 111.437 343.31 111.437 343.31 118.709 340.144 118.709 340.144 102.138"/>
    <path fill="#005EB8" d="M365.485667,105.165625 C364.4765,104.700125 363.404333,104.459063 362.270333,104.444813 C361.997333,104.444813 361.7255,104.475688 361.4525,104.537438 C361.1655,104.606313 360.897167,104.727438 360.646333,104.896062 C360.403667,105.059938 360.197167,105.298625 360.026833,105.616875 C359.865833,105.9185 359.784167,106.297313 359.784167,106.7545 C359.784167,107.102438 359.886833,107.396938 360.093333,107.635625 C360.308,107.868375 360.571667,108.080938 360.890167,108.2745 C361.2355,108.468063 361.611167,108.642625 362.017167,108.795813 C362.413833,108.975125 362.830333,109.156813 363.264333,109.34325 C363.7065,109.520188 364.13,109.725625 364.534833,109.957188 C364.954833,110.2125 365.3235,110.522437 365.639667,110.885813 C365.955833,111.23375 366.221833,111.6565 366.435333,112.151688 C366.6115,112.654 366.700167,113.260813 366.700167,113.973313 C366.671,115.768813 366.0935,117.053687 364.9665,117.82675 C363.831333,118.608125 362.436,118.998812 360.779333,118.998812 C359.962667,118.998812 359.277833,118.934687 358.724833,118.802875 C358.150833,118.694812 357.484667,118.545187 356.725167,118.352812 L357.023833,115.379312 C358.135667,116.0455 359.325667,116.3875 360.592667,116.402938 C361.247167,116.402938 361.8725,116.228375 362.469833,115.87925 C363.074167,115.531312 363.383333,114.993375 363.3985,114.265438 C363.3985,113.87 363.309833,113.530375 363.133667,113.243 C362.920167,112.955625 362.654167,112.7205 362.338,112.534063 C361.645,112.148125 360.852833,111.778813 359.962667,111.430875 C359.528667,111.245625 359.115667,111.023562 358.724833,110.769438 C358.313,110.528375 357.933833,110.242188 357.587333,109.909688 C357.27,109.560563 357.006333,109.141375 356.791667,108.6545 C356.585167,108.158125 356.4825,107.578625 356.4825,106.912438 C356.511667,105.07775 357.090333,103.759625 358.217333,102.962812 C359.305833,102.219438 360.565833,101.84775 361.995,101.84775 C363.3565,101.84775 364.6165,102.043688 365.772667,102.43675 L365.485667,105.165625"/>
    <polyline fill="#005EB8" points="376.455 102.138 385.228 102.138 385.228 104.735 379.62 104.735 379.62 108.842 384.963 108.842 384.963 111.437 379.62 111.437 379.62 118.709 376.455 118.709 376.455 102.138"/>
    <path fill="#005EB8" d="M390.272667 112.295375C390.272667 112.536438 390.291333 112.776313 390.3275 113.016188 390.357833 113.281 390.394 113.53275 390.438333 113.772625 390.525833 114.285625 390.6775 114.746375 390.891 115.15725 391.1115 115.569313 391.4125 115.8935 391.795167 116.134563 392.155667 116.4065 392.622333 116.541875 393.196333 116.541875 393.777333 116.541875 394.266167 116.413625 394.664 116.158313 395.0385 115.918438 395.340667 115.591875 395.568167 115.179812 395.789833 114.770125 395.940333 114.308188 396.020833 113.796375 396.094333 113.307125 396.131667 112.807187 396.131667 112.295375 396.131667 111.310938 395.896 110.460688 395.424667 109.747 394.931167 109.0345 394.189167 108.66875 393.196333 108.653312 392.232667 108.66875 391.508167 109.041625 391.022833 109.77075 390.522333 110.484437 390.272667 111.325187 390.272667 112.295375zM387.1075 112.678938C387.122667 110.637625 387.707167 109.045187 388.862167 107.901625 389.996167 106.779438 391.439333 106.211813 393.1905 106.196375 394.965 106.211813 396.418667 106.779438 397.552667 107.901625 398.6925 109.045187 399.2735 110.637625 399.296833 112.678938 399.296833 114.464938 398.767167 115.952875 397.7055 117.143938 396.654333 118.342125 395.149333 118.960813 393.1905 118.998812 391.255 118.960813 389.761667 118.342125 388.708167 117.143938 387.640667 115.952875 387.1075 114.464938 387.1075 112.678938L387.1075 112.678938zM412.7975 118.709063L409.931 118.709063 409.931 117.051312 409.886667 117.051312C408.937 118.31125 407.665333 118.960813 406.0705 118.998812 404.697333 118.984562 403.699833 118.523812 403.082667 117.618938 402.436333 116.7295 402.113167 115.5895 402.113167 114.19775L402.113167 106.47425 405.140667 106.47425 405.140667 113.023313C405.140667 113.194312 405.155833 113.376 405.185 113.569563 405.185 113.754812 405.192 113.951937 405.207167 114.160938 405.236333 114.571812 405.302833 114.958937 405.4055 115.3235 405.544333 115.671437 405.742667 115.957625 406.0005 116.180875 406.264167 116.421937 406.632833 116.541875 407.101833 116.541875 407.660667 116.541875 408.119167 116.391063 408.479667 116.08825 408.825 115.818687 409.085167 115.476687 409.2625 115.067 409.474833 114.649 409.610167 114.212 409.669667 113.754812 409.736167 113.297625 409.768833 112.868938 409.768833 112.466375L409.768833 106.47425 412.7975 106.47425 412.7975 118.709063M416.365167 106.47425L419.232833 106.47425 419.232833 108.145062 419.277167 108.145062C420.246667 106.8305 421.521833 106.180937 423.102667 106.196375 424.47 106.211812 425.476833 106.66425 426.124333 107.553687 426.7415 108.434812 427.050667 109.579562 427.050667 110.985562L427.050667 118.709062 424.022 118.709062 424.022 112.171875C424.022 111.776437 424.010333 111.3715 423.989333 110.9535 423.974167 110.542625 423.8995 110.172125 423.767667 109.838437 423.665 109.475062 423.478333 109.180562 423.2065 108.954937 422.920667 108.75425 422.5345 108.653312 422.050333 108.653312 421.513667 108.653312 421.079667 108.789875 420.748333 109.060625 420.418167 109.32425 420.1475 109.663875 419.934 110.081875 419.735667 110.491562 419.599167 110.926187 419.525667 111.382187 419.437 111.861937 419.393833 112.30725 419.393833 112.716937L419.393833 118.709062 416.365167 118.709062 416.365167 106.47425M433.032167 112.562562C433.015833 113.446063 433.200167 114.320063 433.581667 115.179812 433.773 115.561 434.034333 115.878062 434.3645 116.134563 434.680667 116.4065 435.087833 116.541875 435.587167 116.541875 436.115667 116.541875 436.545 116.4065 436.876333 116.134563 437.2205 115.878062 437.488833 115.561 437.680167 115.179812 437.893667 114.785562 438.044167 114.3545 438.131667 113.890187 438.205167 113.431813 438.241333 112.990063 438.241333 112.562562 438.241333 111.639875 438.040667 110.771813 437.635833 109.957188 437.408333 109.56175 437.128333 109.244687 436.798167 109.002437 436.452833 108.769688 436.035167 108.653312 435.542833 108.653312 434.594333 108.685375 433.934 109.118813 433.560667 109.957188 433.3775 110.344313 433.248 110.76825 433.1745 111.22425 433.08 111.682625 433.032167 112.127938 433.032167 112.562562zM438.363833 117.3375L438.3195 117.3375C437.385 118.460875 436.193833 119.01425 434.7425 118.998813 432.9785 118.960813 431.720833 118.302938 430.9695 117.027563 430.219333 115.775937 429.850667 114.286813 429.867 112.562563 429.850667 110.81575 430.219333 109.327813 430.9695 108.09875 431.720833 106.861375 432.9785 106.22725 434.7425 106.196375 436.207833 106.196375 437.365167 106.765187 438.219167 107.902812L438.275167 107.902812 438.275167 100.896563 441.302667 100.896563 441.302667 118.709063 438.363833 118.709063 438.363833 117.3375 438.363833 117.3375zM447.011167 115.178625C447.011167 115.683313 447.199 116.056188 447.5735 116.29725 447.92 116.55375 448.373833 116.680813 448.933833 116.680813 449.867167 116.666563 450.575333 116.300813 451.053667 115.585938 451.495833 114.873438 451.708167 114.0315 451.694167 113.060125L450.3805 113.060125C450.210167 113.060125 450.0375 113.060125 449.860167 113.060125 449.675833 113.060125 449.496167 113.075563 449.32 113.106438 448.922167 113.15275 448.55 113.246563 448.204667 113.386688 447.858167 113.533938 447.581667 113.75125 447.376333 114.038625 447.133667 114.317688 447.011167 114.697688 447.011167 115.178625zM445.377833 107.123813C446.679833 106.520563 448.030833 106.211813 449.4285 106.196375 452.8235 106.150063 454.4965 107.866 454.451 111.345375L454.451 112.9105C454.451 114.101563 454.4685 115.122813 454.5035 115.973063 454.5315 116.87675 454.575833 117.789938 454.635333 118.709063L451.9625 118.709063C451.873833 117.966875 451.8295 117.3565 451.8295 116.87675L451.786333 116.87675C451.424667 117.54175 450.920667 118.055938 450.272 118.419313 449.6105 118.80525 448.914 118.998813 448.184833 118.998813 447.1325 118.984563 446.203833 118.666313 445.401167 118.048813 444.561167 117.430125 444.134167 116.533563 444.120167 115.357938 444.120167 114.437625 444.315 113.695438 444.704667 113.131375 445.065167 112.559 445.531833 112.138625 446.107 111.866688 446.710167 111.56625 447.350667 111.369125 448.0285 111.2765 448.720333 111.199313 449.381833 111.161313 450.015333 111.161313L451.694167 111.161313C451.694167 110.17925 451.480667 109.489313 451.053667 109.09625 450.634833 108.707938 449.971 108.514375 449.065667 108.514375 447.740333 108.538125 446.5445 108.983438 445.477 109.849125L445.377833 107.123813 445.377833 107.123813zM458.84 108.793437L456.608167 108.793437 456.608167 106.47425 458.84 106.47425 458.84 104.028 461.8675 103.00675 461.8675 106.47425 464.566 106.47425 464.566 108.793437 461.8675 108.793437 461.8675 114.517187C461.8535 115.05275 461.949167 115.509937 462.155667 115.889938 462.354 116.309125 462.734333 116.526438 463.294333 116.541875 463.868333 116.541875 464.329167 116.429063 464.675667 116.204625L464.764333 118.71025C464.161167 118.902625 463.4145 118.998812 462.524333 118.998812 460.0825 118.929937 458.854 117.609437 458.84 115.040875L458.84 108.793437M466.997333 118.709063L470.026 118.709063 470.026 106.47425 466.997333 106.47425 466.997333 118.709063zM466.997333 104.248875L470.026 104.248875 470.026 101.210063 466.997333 101.210063 466.997333 104.248875zM475.824333 112.295375C475.824333 112.536438 475.843 112.776313 475.880333 113.016188 475.9095 113.281 475.946833 113.53275 475.99 113.772625 476.078667 114.285625 476.229167 114.746375 476.442667 115.15725 476.663167 115.569313 476.965333 115.8935 477.346833 116.134563 477.7085 116.4065 478.175167 116.541875 478.748 116.541875 479.329 116.541875 479.817833 116.413625 480.215667 116.158313 480.590167 115.918438 480.892333 115.591875 481.119833 115.179812 481.3415 114.770125 481.492 114.308188 481.5725 113.796375 481.647167 113.307125 481.683333 112.807187 481.683333 112.295375 481.683333 111.310938 481.447667 110.460688 480.976333 109.747 480.484 109.0345 479.742 108.66875 478.748 108.653312 477.784333 108.66875 477.059833 109.041625 476.575667 109.77075 476.074 110.484437 475.824333 111.325187 475.824333 112.295375zM472.659167 112.678938C472.674333 110.637625 473.258833 109.045187 474.415 107.901625 475.549 106.779438 476.991 106.211813 478.742167 106.196375 480.516667 106.211813 481.970333 106.779438 483.104333 107.901625 484.244167 109.045187 484.826333 110.637625 484.8485 112.678938 484.8485 114.464938 484.318833 115.952875 483.258333 117.143938 482.206 118.342125 480.701 118.960813 478.742167 118.998812 476.806667 118.960813 475.313333 118.342125 474.261 117.143938 473.192333 115.952875 472.659167 114.464938 472.659167 112.678938L472.659167 112.678938zM488 107.266742L490.95119 107.266742 490.95119 108.869061 490.996833 108.869061C491.996178 107.608387 493.309019 106.985453 494.935357 107.000258 496.343088 107.015062 497.379668 107.448953 498.046298 108.301929 498.681699 109.146933 499 110.244755 499 111.593117L499 119 495.881852 119 495.881852 112.730798C495.881852 112.351571 495.869841 111.963234 495.84822 111.562369 495.832605 111.168338 495.758135 110.813026 495.620004 110.493018 495.515506 110.144539 495.322123 109.862111 495.042258 109.645736 494.74798 109.453275 494.350404 109.356476 493.851933 109.356476 493.29941 109.356476 492.853789 109.48744 492.513868 109.747091 492.171544 109.999909 491.892881 110.325611 491.673073 110.726476 491.46888 111.119368 491.329548 111.536176 491.253876 111.973483 491.163791 112.433566 491.116947 112.860623 491.116947 113.253516L491.116947 119 488 119 488 107.266742"/>
    <polyline fill="#005EB8" points="511.448 105.507 507 105.507 507 103 519 103 519 105.507 514.556 105.507 514.556 119 511.448 119 511.448 105.507"/>
    <path fill="#005EB8" d="M519.637 106.945143L522.327333 106.945143 522.327333 109.622857 522.371667 109.622857C522.467333 109.013714 522.7975 108.380571 523.363333 107.726857 523.922167 107.057143 524.653667 106.707429 525.557833 106.677714 525.858833 106.677714 526.168 106.707429 526.484167 106.766857L526.484167 109.853714C526.168 109.690286 525.715333 109.608 525.126167 109.608 524.523 109.608 524.056333 109.776 523.725 110.109714 523.393667 110.429714 523.1475 110.849143 522.985333 111.370286 522.830167 111.853714 522.739167 112.370286 522.71 112.921143 522.679667 113.456 522.665667 113.949714 522.665667 114.404571L522.665667 118.72 519.637 118.72 519.637 106.945143M539.333833 118.72L536.467333 118.72 536.467333 117.124571 536.423 117.124571C535.4745 118.337143 534.201667 118.962286 532.606833 118.998857 531.2325 118.985143 530.237333 118.541714 529.620167 117.670857 528.972667 116.814857 528.6495 115.717714 528.6495 114.378286L528.6495 106.945143 531.677 106.945143 531.677 113.248C531.677 113.412571 531.692167 113.587429 531.721333 113.773714 531.721333 113.952 531.728333 114.141714 531.7435 114.342857 531.772667 114.738286 531.839167 115.110857 531.941833 115.461714 532.081833 115.796571 532.280167 116.072 532.536833 116.286857 532.8005 116.518857 533.169167 116.634286 533.638167 116.634286 534.195833 116.634286 534.6555 116.489143 535.016 116.197714 535.360167 115.938286 535.6215 115.609143 535.797667 115.214857 536.011167 114.812571 536.1465 114.392 536.206 113.952 536.2725 113.512 536.305167 113.099429 536.305167 112.712L536.305167 106.945143 539.333833 106.945143 539.333833 118.72M549.8175 109.422857C549.367167 109.251429 548.927333 109.121143 548.500333 109.032 548.080333 108.949714 547.579833 108.908571 547 108.908571 546.564833 108.908571 546.16 108.994286 545.7855 109.165714 545.3725 109.366857 545.159 109.715429 545.143833 110.214857 545.159 110.660571 545.448333 110.973714 546.0095 111.152 546.2755 111.257143 546.571833 111.357714 546.8985 111.453714 547.225167 111.542857 547.551833 111.648 547.8785 111.765714 548.2355 111.877714 548.577333 112.016 548.904 112.178286 549.214333 112.365714 549.496667 112.580571 549.746333 112.826286 550.012333 113.08 550.222333 113.392 550.374 113.764571 550.518667 114.144 550.589833 114.608 550.589833 115.16 550.5525 116.513143 550.040333 117.496 549.056833 118.106286 548.072167 118.701714 546.918333 118.998857 545.594167 118.998857 544.4135 118.985143 543.2445 118.817143 542.087167 118.499429L542.270333 115.986286C543.252667 116.507429 544.286333 116.768 545.367833 116.768 545.801833 116.768 546.244 116.659429 546.693167 116.444571 547.166833 116.250286 547.410667 115.877714 547.424667 115.325714 547.424667 115.021714 547.352333 114.768 547.207667 114.566857 547.056 114.387429 546.846 114.242286 546.58 114.130286 546.031667 113.922286 545.4075 113.724571 544.706333 113.539429 544.379667 113.434286 544.051833 113.304 543.724 113.147429 543.396167 112.998857 543.099833 112.801143 542.833833 112.555429 542.574833 112.309714 542.373 112.003429 542.228333 111.638857 542.060333 111.289143 541.976333 110.852571 541.976333 110.331429 541.9915 109.050286 542.476833 108.123429 543.4335 107.549714 544.3295 106.968 545.398167 106.677714 546.6395 106.677714 547.369833 106.677714 548.002167 106.714286 548.537667 106.789714 549.065 106.878857 549.557333 106.987429 550.017 107.113143L549.8175 109.422857M554.249667 109.177143L552.017833 109.177143 552.017833 106.945143 554.249667 106.945143 554.249667 104.590857 557.278333 103.608 557.278333 106.945143 559.975667 106.945143 559.975667 109.177143 557.278333 109.177143 557.278333 114.685714C557.263167 115.201143 557.358833 115.641143 557.565333 116.006857 557.764833 116.410286 558.144 116.619429 558.704 116.634286 559.278 116.634286 559.738833 116.525714 560.085333 116.309714L560.174 118.721143C559.570833 118.906286 558.824167 118.998857 557.934 118.998857 555.492167 118.932571 554.264833 117.661714 554.249667 115.189714L554.249667 109.177143M553.806847 13.934619C551.740345 12.9574318 548.925987 12.0943086 544.967715 12.0943086 540.722881 12.0943086 537.275992 12.7222484 537.275992 15.9571966 537.275992 21.6603951 552.833005 19.5319849 552.833005 31.7544685 552.833005 42.8798213 542.555242 45.766698 533.255981 45.766698 529.124141 45.766698 524.358604 44.7801035 520.86046 43.6829727L523.385927 35.4962371C525.504849 36.8826435 529.757837 37.8069144 533.255981 37.8069144 536.589876 37.8069144 541.808552 37.1695673 541.808552 33.0197554 541.808552 26.5604421 526.251539 28.9828316 526.251539 17.6305268 526.251539 7.2471778 535.324813 4.13452493 544.108031 4.13452493 549.0483 4.13452493 553.693854 4.65780809 556.392888 5.9219191L553.806847 13.934619zM506.509101 45.0693791L510.067819 27.8327846 497.376418 27.8327846 493.817701 45.0693791 483.086798 45.0693791 491.412217 4.82478833 502.14312 4.82478833 498.990946 20.2198965 511.675358 20.2198965 514.83452 4.82478833 525.565423 4.82478833 517.240004 45.0693791 506.509101 45.0693791zM465.63685 45.0693791L457.260176 17.2213076 457.146018 17.2213076 451.573217 45.0693791 441.467857 45.0693791 450.027417 4.82478833 463.397945 4.82478833 471.609205 32.7316557 471.722199 32.7316557 477.348584 4.82478833 487.453945 4.82478833 478.961947 45.0693791 465.63685 45.0693791zM438 50L561 50 561 0 438 0 438 50z"/>
  </g>
</svg>
