<svg xmlns="http://www.w3.org/2000/svg" width="563" height="115" viewBox="0 0 563 115">
  <g fill="none" fill-rule="evenodd">
    <rect width="563" height="115" fill="#FFF"/>
    <g transform="translate(0 -1)">
      <g fill="#005EB8" transform="translate(325 96)">
        <polygon points=".396 18.083 .396 1.826 4.357 1.826 10.79 14.288 10.79 1.826 13.744 1.826 13.744 18.083 9.76 18.083 3.327 5.621 3.327 18.083"/>
        <polygon points="17.522 18.083 17.522 1.826 20.83 1.826 20.83 8.331 27.344 8.331 27.344 1.826 30.652 1.826 30.652 18.083 27.344 18.083 27.344 11.086 20.83 11.086 20.83 18.083"/>
        <path d="M43.4849008,2.25988293 L43.1871527,4.96954146 C42.752253,4.74827317 42.2159548,4.56505366 41.5788442,4.42046829 C40.9417337,4.27588293 40.3556154,4.20329756 39.8216617,4.20329756 C38.9817542,4.20329756 38.3393686,4.39061463 37.8927465,4.76349268 C37.4461244,5.1369561 37.2228134,5.56778537 37.2228134,6.05539512 C37.2228134,6.42885854 37.3470704,6.77012683 37.5949985,7.07861463 C37.8429265,7.3876878 38.3258879,7.68680976 39.0432967,7.97656585 L41.5044072,8.98222439 C42.4128905,9.34807805 43.124438,9.90827317 43.639636,10.6628098 C44.1548339,11.4179317 44.4121398,12.2790049 44.4121398,13.2472 C44.4121398,14.1234927 44.234546,14.8873951 43.8799445,15.5394927 C43.5247568,16.1910049 43.0687568,16.7125659 42.5119445,17.1053463 C41.9551321,17.4981268 41.3021964,17.7820293 40.5543095,17.9570537 C39.8064226,18.132078 39.020438,18.2204683 38.1963558,18.2204683 C36.8910704,18.2204683 35.535965,18.0032976 34.1322118,17.5683707 L34.4299599,14.584761 C34.9334355,14.8815415 35.5131064,15.1238829 36.170145,15.3106146 C36.8265974,15.4973463 37.4596051,15.5904195 38.0703404,15.5904195 C39.0245409,15.5904195 39.7513275,15.3791024 40.2507003,14.9558829 C40.7506591,14.5332488 41.0009316,14.0397854 41.0009316,13.4754927 C41.0009316,13.048761 40.8649522,12.6770537 40.5941656,12.3609561 C40.3233789,12.0448585 39.8861347,11.7568585 39.2836051,11.4975415 L37.0282221,10.5258341 C36.3260524,10.2214439 35.7844792,9.91237073 35.4029162,9.59978537 C34.8994406,9.19588293 34.5155332,8.72349268 34.2523661,8.18202927 C33.989199,7.64056585 33.8573224,7.01598049 33.8573224,6.30710244 C33.8573224,4.94261463 34.3496617,3.82632195 35.3343404,2.95705366 C36.3184329,2.08837073 37.7608699,1.65402927 39.6616514,1.65402927 C40.8901553,1.65402927 42.1643763,1.85598049 43.4849008,2.25988293"/>
        <polygon points="53.799 18.083 53.799 1.905 62.866 1.905 62.866 4.615 57.108 4.615 57.108 8.514 62.591 8.514 62.591 11.178 57.108 11.178 57.108 18.083"/>
        <path d="M67.9599095 12.0121951C67.9599095 13.3310244 68.2459352 14.3290732 68.8185728 15.0075122 69.3906242 15.6859512 70.0892771 16.024878 70.9133594 16.024878 71.8751794 16.024878 72.6230663 15.6555122 73.1570201 14.9161951 73.6909738 14.176878 73.9582437 13.2356098 73.9582437 12.0923902 73.9582437 11.0557073 73.7026961 10.1185366 73.191601 9.27970732 72.6805059 8.44087805 71.9396524 8.02234146 70.970799 8.02234146 70.5358992 8.02234146 70.1461306 8.10780488 69.8032514 8.27931707 69.4597861 8.45082927 69.1579352 8.70078049 68.898871 9.028 68.6392206 9.35580488 68.4334931 9.7257561 68.2805162 10.1372683 68.0671692 10.7314146 67.9599095 11.3565854 67.9599095 12.0121951M77.221164 12.2065366C77.221164 12.9306341 77.0992514 13.6681951 76.8548401 14.4186341 76.6104288 15.1696585 76.2382437 15.8305366 75.7382848 16.402439 75.2389121 16.9743415 74.5865625 17.4525854 73.781236 17.8371707 72.9759095 18.2217561 72.0310869 18.4149268 70.9479404 18.4149268 69.1004956 18.4149268 67.5894828 17.8260488 66.4143157 16.6482927 65.2391486 15.4705366 64.651272 13.9485854 64.651272 12.0806829 64.651272 10.1829268 65.2391486 8.63931707 66.4143157 7.45043902 67.5894828 6.26156098 69.1045985 5.66682927 70.9590766 5.66682927 72.8065213 5.66682927 74.311673 6.26156098 75.4751177 7.45043902 76.6391486 8.63931707 77.221164 10.2244878 77.221164 12.2065366M79.7968021 6.02132683L82.9448432 6.02132683 82.9448432 11.9551805 82.9677018 13.0182049C82.9905604 13.848839 83.1282982 14.4511805 83.3797429 14.8246439 83.776545 15.4035707 84.3456658 15.6933268 85.085347 15.6933268 85.5208329 15.6933268 85.9141183 15.5850341 86.264617 15.3678634 86.6157018 15.1506927 86.8958663 14.8550829 87.1062828 14.4816195 87.3161131 14.1081561 87.4708483 13.619961 87.5699023 13.0182049 87.6156195 12.7366439 87.6384781 12.2560585 87.6384781 11.5776195L87.6384781 6.02132683 90.7865193 6.02132683 90.7865193 13.3957659 90.8668175 17.3744976 90.9465296 18.0827902 87.9133676 18.0827902 87.8330694 16.2424C87.474365 16.8441561 86.9574087 17.3300098 86.2816144 17.699961 85.6064062 18.0699122 84.8221799 18.2543024 83.9295219 18.2543024 83.295928 18.2543024 82.7273933 18.1647415 82.2239177 17.9856195 81.719856 17.8070829 81.3095733 17.5723512 80.9930694 17.2825951 80.6765656 16.992839 80.4362571 16.6767415 80.272144 16.3337171 80.1074447 15.9906927 79.979671 15.4726439 79.8882365 14.7789854 79.8272802 14.3142049 79.7968021 13.4297171 79.7968021 12.1266927L79.7968021 6.02132683zM97.0025378 6.02132683L97.082836 7.86230244C97.9450159 6.50542439 99.2461985 5.82698537 100.986384 5.82698537 101.642836 5.82698537 102.232471 5.9224 102.754702 6.1126439 103.27752 6.3028878 103.706558 6.56454634 104.04299 6.89586341 104.378836 7.22776585 104.630867 7.59186341 104.798497 7.98757073 104.966126 8.38386341 105.088625 8.94405854 105.164821 9.6681561 105.195299 10.0111805 105.214641 10.9184976 105.221674 12.389522L105.221674 18.0827902 102.096492 18.0827902 102.096492 12.0347902C102.096492 10.7241561 101.982198 9.83966829 101.753026 9.38249756 101.402528 8.69644878 100.818754 8.35342439 100.001705 8.35342439 99.4906098 8.35342439 99.0099928 8.49800976 98.5592679 8.78835122 98.109129 9.07810732 97.7809028 9.48961951 97.5751753 10.0228878 97.3688617 10.5561561 97.2657049 11.3376195 97.2657049 12.3666927L97.2657049 18.0827902 94.1176638 18.0827902 94.1176638 8.39908293C94.1176638 7.56903415 94.0836689 6.77586341 94.0145069 6.02132683L97.0025378 6.02132683zM113.670276 8.37654634C112.945247 8.37654634 112.330995 8.67976585 111.826934 9.28561951 111.323458 9.89147317 111.071427 10.819278 111.071427 12.0696195 111.071427 13.3650341 111.340456 14.3156683 111.878512 14.9221073 112.416569 15.527961 113.036682 15.8305951 113.738851 15.8305951 114.479119 15.8305951 115.116815 15.5203512 115.650769 14.899278 116.184723 14.2776195 116.451993 13.3539122 116.451993 12.1264 116.451993 11.0364488 116.207581 10.1390829 115.719345 9.43430244 115.231108 8.72952195 114.547695 8.37654634 113.670276 8.37654634M116.486574 7.75898537L116.486574.522107317 119.577175.522107317 119.577175 18.0830829 116.600867 18.0830829 116.600867 16.3223024C116.196445 16.9170341 115.661905 17.3859122 114.99842 17.7289366 114.334348 18.0713756 113.6017 18.2428878 112.800476 18.2428878 112.136404 18.2428878 111.542666 18.1381073 111.020435 17.9285463 110.497617 17.7189854 110.069751 17.4696195 109.738008 17.1798634 109.406265 16.8901073 109.096795 16.5184 108.810769 16.0653268 108.524743 15.6116683 108.28971 15.017522 108.106841 14.2817171 107.923386 13.5459122 107.831952 12.7550829 107.831952 11.9092293 107.831952 10.0266927 108.265093 8.53810732 109.131376 7.4446439 109.997072 6.35118049 111.182204 5.80386341 112.685597 5.80386341 113.510265 5.80386341 114.219468 5.9601561 114.814965 6.27274146 115.410461 6.58532683 115.967273 7.08054634 116.486574 7.75898537M129.788528 12.5838634C129.399345 12.5534244 129.136178 12.5382049 128.99844 12.5382049 128.2359 12.5382049 127.534903 12.6066927 126.897792 12.7436683 126.260682 12.8812293 125.797062 13.1153756 125.506934 13.447278 125.216805 13.7785951 125.072034 14.1573268 125.072034 14.5846439 125.072034 15.0418146 125.236147 15.4193756 125.564373 15.7167415 125.892599 16.013522 126.346841 16.1622049 126.926512 16.1622049 127.437607 16.1622049 127.935808 16.0117659 128.420528 15.7108878 128.905247 15.4094244 129.254574 15.0189854 129.467921 14.5389854 129.681268 14.0589854 129.788528 13.4068878 129.788528 12.5838634L129.788528 12.5838634zM129.948538 18.0833756L129.868826 16.2997659C129.601556 16.8640585 129.115078 17.3382049 128.408805 17.7227902 127.703119 18.107961 126.915376 18.3005463 126.04499 18.3005463 125.289484 18.3005463 124.591417 18.1436683 123.950204 17.8316683 123.30899 17.5190829 122.815479 17.071278 122.467911 16.4882537 122.120342 15.9052293 121.946851 15.2361561 121.946851 14.4816195 121.946851 13.1171317 122.569309 12.0880585 123.813052 11.3949854 124.767252 10.8687415 126.205587 10.6059122 128.128641 10.6059122 128.609258 10.6059122 129.154934 10.632839 129.765669 10.6861073 129.773288 10.541522 129.776805 10.4303024 129.776805 10.3542049 129.776805 9.59966829 129.555839 9.0148878 129.113319 8.59927805 128.6708 8.18366829 127.991489 7.97644878 127.075386 7.97644878 126.411314 7.97644878 125.740209 8.1064 125.060898 8.36513171 124.381001 8.62386341 123.805432 8.94405854 123.331849 9.32571707L123.252137 6.61605854C123.656558 6.41000976 124.266707 6.21976585 125.083756 6.0441561 125.900219 5.86854634 126.704959 5.78132683 127.49915 5.78132683 128.51372 5.78132683 129.374728 5.9224 130.080414 6.20454634 130.786101 6.48610732 131.361083 6.91283902 131.803602 7.48474146 132.108384 7.8886439 132.314697 8.4166439 132.421371 9.0681561 132.52863 9.71966829 132.581967 10.6744 132.581967 11.9323512L132.581967 13.715961 132.615962 15.4761561 132.661679 17.3282537 132.719119 18.0833756 129.948538 18.0833756zM136.805946 8.41084878L134.504845 8.41084878 134.504845 6.07875122 136.840526 6.07875122 136.840526 3.60909268 139.85083 2.6145561 139.85083 6.07875122 142.667128 6.07875122 142.667128 8.41084878 139.85083 8.41084878 139.85083 12.823922C139.85083 13.8834341 139.94285 14.5618732 140.125719 14.859239 140.438706 15.3620683 140.957421 15.6137756 141.682449 15.6137756 142.048773 15.6137756 142.422717 15.5523122 142.80428 15.4305561L142.884578 17.9230439C142.266223 18.1208976 141.556434 18.2204098 140.75521 18.2204098 140.175539 18.2204098 139.669719 18.153678 139.238336 18.0202146 138.807539 17.8867512 138.438871 17.7000195 138.134089 17.4600195 137.828722 17.2200195 137.584311 16.9495805 137.401442 16.6481171 137.217987 16.347239 137.06501 15.9111415 136.943097 15.339239 136.851663 14.9201171 136.805946 14.2990439 136.805946 13.4754341L136.805946 8.41084878zM145.426221 18.0827317L148.574262 18.0827317 148.574262 6.02126829 145.426221 6.02126829 145.426221 18.0827317zM145.426221 3.82614634L148.574262 3.82614634 148.574262.876487805 145.426221.876487805 145.426221 3.82614634zM154.458186 12.0121951C154.458186 13.3310244 154.744212 14.3290732 155.316849 15.0075122 155.888901 15.6859512 156.587554 16.024878 157.411636 16.024878 158.373456 16.024878 159.121343 15.6555122 159.655297 14.9161951 160.18925 14.176878 160.45652 13.2356098 160.45652 12.0923902 160.45652 11.0557073 160.200973 10.1185366 159.689878 9.27970732 159.178783 8.44087805 158.437929 8.02234146 157.469076 8.02234146 157.034176 8.02234146 156.644407 8.10780488 156.301528 8.27931707 155.958063 8.45082927 155.656212 8.70078049 155.397148 9.028 155.137497 9.35580488 154.93177 9.7257561 154.778793 10.1372683 154.565446 10.7314146 154.458186 11.3565854 154.458186 12.0121951M163.719441 12.2065366C163.719441 12.9306341 163.597528 13.6681951 163.353117 14.4186341 163.108705 15.1696585 162.73652 15.8305366 162.236561 16.402439 161.737189 16.9743415 161.084839 17.4525854 160.279513 17.8371707 159.474186 18.2217561 158.529363 18.4149268 157.446217 18.4149268 155.598772 18.4149268 154.087759 17.8260488 152.912592 16.6482927 151.737425 15.4705366 151.149549 13.9485854 151.149549 12.0806829 151.149549 10.1829268 151.737425 8.63931707 152.912592 7.45043902 154.087759 6.26156098 155.602875 5.66682927 157.457353 5.66682927 159.304798 5.66682927 160.80995 6.26156098 161.973394 7.45043902 163.137425 8.63931707 163.719441 10.2244878 163.719441 12.2065366M169.168348 6.02132683L169.248646 7.86230244C170.110826 6.50542439 171.412008 5.82698537 173.152193 5.82698537 173.808646 5.82698537 174.398281 5.9224 174.920512 6.1126439 175.44333 6.3028878 175.872368 6.56454634 176.2088 6.89586341 176.544646 7.22776585 176.796677 7.59186341 176.964306 7.98757073 177.131936 8.38386341 177.254435 8.94405854 177.33063 9.6681561 177.361108 10.0111805 177.38045 10.9184976 177.387484 12.389522L177.387484 18.0827902 174.262301 18.0827902 174.262301 12.0347902C174.262301 10.7241561 174.148008 9.83966829 173.918836 9.38249756 173.568337 8.69644878 172.984563 8.35342439 172.167515 8.35342439 171.65642 8.35342439 171.175803 8.49800976 170.725078 8.78835122 170.274939 9.07810732 169.946713 9.48961951 169.740985 10.0228878 169.534671 10.5561561 169.431515 11.3376195 169.431515 12.3666927L169.431515 18.0827902 166.283474 18.0827902 166.283474 8.39908293C166.283474 7.56903415 166.249479 6.77586341 166.180317 6.02132683L169.168348 6.02132683z"/>
        <polygon points="197.776 1.848 197.776 4.615 193.048 4.615 193.048 18.083 189.74 18.083 189.74 4.615 185.126 4.615 185.126 1.848"/>
        <path d="M197.192126 6.02132683L200.065278 6.02132683 200.122718 9.08513171C200.329031 8.10932683 200.752209 7.33781463 201.393422 6.77000976 202.034635 6.20279024 202.76318 5.91830244 203.579643 5.91830244 203.877391 5.91830244 204.164003 5.94522927 204.438306 5.99849756L204.438306 8.9481561C204.202101 8.81820488 203.881494 8.75381463 203.477072 8.75381463 202.912054 8.75381463 202.436713 8.86386341 202.051633 9.08513171 201.666553 9.3064 201.351808 9.60142439 201.107396 9.97137561 200.862985 10.3413268 200.691252 10.7586927 200.592198 11.2234732 200.493144 11.6882537 200.443324 12.3210341 200.443324 13.1212293L200.443324 18.0827902 197.295283 18.0827902 197.295283 9.67986341 197.214985 6.3526439 197.192126 6.02132683zM206.441834 6.02132683L209.589876 6.02132683 209.589876 11.9551805 209.612734 13.0182049C209.635593 13.848839 209.773331 14.4511805 210.024775 14.8246439 210.421577 15.4035707 210.990698 15.6933268 211.730379 15.6933268 212.165865 15.6933268 212.559151 15.5850341 212.909649 15.3678634 213.260734 15.1506927 213.540899 14.8550829 213.751315 14.4816195 213.961146 14.1081561 214.115881 13.619961 214.214935 13.0182049 214.260652 12.7366439 214.283511 12.2560585 214.283511 11.5776195L214.283511 6.02132683 217.431552 6.02132683 217.431552 13.3957659 217.51185 17.3744976 217.591562 18.0827902 214.5584 18.0827902 214.478102 16.2424C214.119397 16.8441561 213.602441 17.3300098 212.926647 17.699961 212.251439 18.0699122 211.467212 18.2543024 210.574554 18.2543024 209.94096 18.2543024 209.372426 18.1647415 208.86895 17.9856195 208.364888 17.8070829 207.954606 17.5723512 207.638102 17.2825951 207.321598 16.992839 207.081289 16.6767415 206.917176 16.3337171 206.752477 15.9906927 206.624703 15.4726439 206.533269 14.7789854 206.472313 14.3142049 206.441834 13.4297171 206.441834 12.1266927L206.441834 6.02132683zM228.146497 6.2385561L227.929047 8.62801951C226.974846 8.26216585 226.112666 8.07953171 225.341921 8.07953171 224.601653 8.07953171 224.055977 8.21475122 223.704893 8.48519024 223.353808 8.75562927 223.177972 9.05533659 223.177972 9.3825561 223.177972 9.63426341 223.282887 9.85143415 223.493304 10.0340683 223.703134 10.2172878 223.887761 10.3162146 224.048358 10.3314341 224.086456 10.3390439 224.124553 10.347239 224.162651 10.3542634L226.360594 11.1205073C227.085623 11.3722146 227.650054 11.7837268 228.055062 12.3550439 228.459484 12.9269463 228.661695 13.6200195 228.661695 14.4360195 228.661695 15.1144585 228.535679 15.6805073 228.283648 16.1335805 228.032204 16.587239 227.713355 16.9665561 227.328276 17.2715317 226.94261 17.575922 226.559288 17.8012878 226.177725 17.9458732 225.56699 18.1817756 224.776903 18.3000195 223.808049 18.3000195 222.587165 18.3000195 221.346353 18.1208976 220.087371 17.7626537L220.281962 15.1560195C221.495227 15.6594341 222.510384 15.9105561 223.326846 15.9105561 224.089972 15.9105561 224.670229 15.758361 225.067031 15.4533854 225.34954 15.2403122 225.490795 14.9277268 225.490795 14.5162146 225.490795 14.2492878 225.425736 14.0315317 225.296204 13.8641171 225.166085 13.6967024 224.959772 13.5673366 224.677849 13.4754341L223.31571 13.0410927C222.079001 12.6448 221.23206 12.1648 220.774301 11.6005073 220.316543 11.0362146 220.087371 10.3273366 220.087371 9.47387317 220.087371 8.44538537 220.461314 7.61065366 221.209201 6.97026341 222.148162 6.17006829 223.384286 5.76967805 224.918157 5.76967805 225.902836 5.76967805 226.978949 5.92597073 228.146497 6.2385561M232.153201 8.41084878L229.852101 8.41084878 229.852101 6.07875122 232.187782 6.07875122 232.187782 3.60909268 235.198085 2.6145561 235.198085 6.07875122 238.014384 6.07875122 238.014384 8.41084878 235.198085 8.41084878 235.198085 12.823922C235.198085 13.8834341 235.290106 14.5618732 235.472975 14.859239 235.785962 15.3620683 236.304677 15.6137756 237.029705 15.6137756 237.396029 15.6137756 237.769972 15.5523122 238.151535 15.4305561L238.231833 17.9230439C237.613479 18.1208976 236.903689 18.2204098 236.102466 18.2204098 235.522795 18.2204098 235.016975 18.153678 234.585592 18.0202146 234.154795 17.8867512 233.786126 17.7000195 233.481345 17.4600195 233.175977 17.2200195 232.931566 16.9495805 232.748697 16.6481171 232.565242 16.347239 232.412265 15.9111415 232.290353 15.339239 232.198918 14.9201171 232.153201 14.2990439 232.153201 13.4754341L232.153201 8.41084878z"/>
      </g>
      <text fill="#000" font-family="Frutiger-Bold, Frutiger" font-size="35" font-weight="bold">
        <tspan x="204.242" y="90.683">Guy&apos;s and St Thomas&apos;</tspan>
      </text>
      <path fill="#005EB8" d="M0.867187661,50.3274146 L124.644812,50.3274146 L124.644812,0.547902439 L0.867187661,0.547902439 L0.867187661,50.3274146 Z M50.6339023,5.35082927 L42.0888843,45.4179512 L28.679671,45.4179512 L20.248946,17.6932683 L20.1358252,17.6932683 L14.5278458,45.4179512 L4.35869409,45.4179512 L12.9717018,5.35082927 L26.4260463,5.35082927 L34.6903136,33.1346341 L34.8034344,33.1346341 L40.4647506,5.35082927 L50.6339023,5.35082927 Z M88.985964,5.35082927 L80.6085758,45.4179512 L69.8105193,45.4179512 L73.3911157,28.2567805 L60.619599,28.2567805 L57.0378303,45.4179512 L46.2397738,45.4179512 L54.6183342,5.35082927 L65.4163907,5.35082927 L62.2437326,20.6792195 L75.0088021,20.6792195 L78.1879075,5.35082927 L88.985964,5.35082927 Z M120.007445,6.44370732 L117.405666,14.4210732 C115.326118,13.4481951 112.494581,12.588878 108.511321,12.588878 C104.239692,12.588878 100.771044,13.2140488 100.771044,16.4341463 C100.771044,22.1116098 116.425676,19.9931707 116.425676,32.1629268 C116.425676,43.2386341 106.083033,46.1121951 96.7262416,46.1121951 C92.5677326,46.1121951 87.7709409,45.1305366 84.2513008,44.0376585 L86.7927095,35.8876098 C88.9250077,37.2673171 93.2060154,38.1875122 96.7262416,38.1875122 C100.081183,38.1875122 105.331044,37.553561 105.331044,33.4220488 C105.331044,26.9906341 89.6764113,29.4029268 89.6764113,18.1000976 C89.6764113,7.76312195 98.8063753,4.66419512 107.645625,4.66419512 C112.616494,4.66419512 117.291959,5.18458537 120.007445,6.44370732 L120.007445,6.44370732 Z" transform="translate(439)"/>
    </g>
  </g>
</svg>
