<svg xmlns="http://www.w3.org/2000/svg" xmlns:xlink="http://www.w3.org/1999/xlink" width="561" height="119" viewBox="0 0 561 119">
  <defs>
    <polygon id="ouh-a" points="0 .548 455.644 .548 455.644 119.415 0 119.415"/>
  </defs>
  <g fill="none" fill-rule="evenodd">
    <rect width="561" height="119" fill="#FFF"/>
    <g transform="translate(105)">
      <polygon fill="#FEFEFE" points="333.303 48.347 452.448 48.347 452.448 2.284 333.303 2.284"/>
      <g transform="translate(0 .037)">
        <mask id="ouh-b" fill="#fff">
          <use xlink:href="#ouh-a"/>
        </mask>
        <path fill="#005EB8" d="M331.867188,50.3274146 L455.644812,50.3274146 L455.644812,0.547902439 L331.867188,0.547902439 L331.867188,50.3274146 Z M381.633902,5.35082927 L373.088884,45.4179512 L359.679671,45.4179512 L351.248946,17.6932683 L351.135825,17.6932683 L345.527846,45.4179512 L335.358694,45.4179512 L343.971702,5.35082927 L357.426046,5.35082927 L365.690314,33.1346341 L365.803434,33.1346341 L371.464751,5.35082927 L381.633902,5.35082927 Z M419.985964,5.35082927 L411.608576,45.4179512 L400.810519,45.4179512 L404.391116,28.2567805 L391.619599,28.2567805 L388.03783,45.4179512 L377.239774,45.4179512 L385.618334,5.35082927 L396.416391,5.35082927 L393.243733,20.6792195 L406.008802,20.6792195 L409.187907,5.35082927 L419.985964,5.35082927 Z M451.007445,6.44370732 L448.405666,14.4210732 C446.326118,13.4481951 443.494581,12.588878 439.511321,12.588878 C435.239692,12.588878 431.771044,13.2140488 431.771044,16.4341463 C431.771044,22.1116098 447.425676,19.9931707 447.425676,32.1629268 C447.425676,43.2386341 437.083033,46.1121951 427.726242,46.1121951 C423.567733,46.1121951 418.770941,45.1305366 415.251301,44.0376585 L417.79271,35.8876098 C419.925008,37.2673171 424.206015,38.1875122 427.726242,38.1875122 C431.081183,38.1875122 436.331044,37.553561 436.331044,33.4220488 C436.331044,26.9906341 420.676411,29.4029268 420.676411,18.1000976 C420.676411,7.76312195 429.806375,4.66419512 438.645625,4.66419512 C443.616494,4.66419512 448.291959,5.18458537 451.007445,6.44370732 L451.007445,6.44370732 Z" mask="url(#ouh-b)"/>
        <path fill="#1D1D1B" d="M11.9341296,86.4878049 C13.7200319,86.4878049 15.1911887,85.7959024 16.3470139,84.4126829 C17.8011733,82.7092683 18.5279599,80.4398049 18.5279599,77.6042927 C18.5279599,75.6725854 18.1985614,74.0001951 17.5403506,72.5882927 C16.8821398,71.1763902 16.0639188,70.1701463 15.0851013,69.5701463 C14.1062838,68.969561 13.0448237,68.6698537 11.8995486,68.6698537 C10.0796514,68.6698537 8.59149717,69.3617561 7.43508586,70.7443902 C6.00437121,72.4483902 5.28872082,74.7576585 5.28872082,77.6727805 C5.28872082,79.5482927 5.58646889,81.1545366 6.18196504,82.4920976 C6.77687506,83.8296585 7.58102931,84.8300488 8.59442776,85.4932683 C9.6072401,86.1564878 10.7208648,86.4878049 11.9341296,86.4878049 M0.000175835476,77.5012683 C0.000175835476,75.6725854 0.269204113,73.9685854 0.807260668,72.3910244 C1.34531722,70.8134634 2.12075167,69.4817561 3.13356401,68.3953171 C4.14696247,67.308878 5.28872082,66.4917073 6.55942519,65.9426341 C8.17359486,65.2454634 9.98821697,64.8965854 12.0027054,64.8965854 C14.3383866,64.8965854 16.387456,65.3713171 18.1499136,66.3201951 C19.9129573,67.2690732 21.2985409,68.7582439 22.305492,70.7877073 C23.3130293,72.8171707 23.8165049,75.0725854 23.8165049,77.5527805 C23.8165049,80.0341463 23.3270961,82.2690732 22.3488648,84.2581463 C21.3700473,86.2478049 19.9533995,87.7539512 18.0989213,88.7771707 C16.2444432,89.8003902 14.1607928,90.312 11.8485563,90.312 C9.5814509,90.312 7.51831465,89.8003902 5.65797532,88.7771707 C3.79763599,87.7539512 2.38977995,86.2706341 1.43382108,84.3272195 C0.477862211,82.3832195 0.000175835476,80.1084878 0.000175835476,77.5012683" mask="url(#ouh-b)"/>
        <polygon fill="#1D1D1B" points="32.162 80.348 26.547 71.722 32.127 71.722 35.665 77.622 39.168 71.774 44.131 71.774 38.721 80.417 44.869 89.815 39.203 89.815 35.167 83.075 31.098 89.815 25.895 89.815" mask="url(#ouh-b)"/>
        <path fill="#1D1D1B" d="M58.5031003 63.6791415L58.125054 67.5378732C57.5758612 67.2633366 56.980365 67.126361 56.3397378 67.126361 55.423635 67.126361 54.8228638 67.4237268 54.5362519 68.0178732 54.2502262 68.6126049 54.0784936 69.8758244 54.0216401 71.8081171L58.125054 71.8081171 58.125054 75.3408 54.0216401 75.3408 54.0216401 89.8145561 49.2992853 89.8145561 49.2992853 75.3408 45.7960566 75.3408 45.7960566 71.8081171 49.2992853 71.8081171C49.3332802 69.4988488 49.545455 67.8012878 49.9346375 66.7148488 50.3238201 65.6284098 50.9732391 64.7884098 51.8834807 64.193678 52.7937224 63.5995317 54.0386375 63.3015805 55.6182262 63.3015805 56.6832031 63.3015805 57.644437 63.4280195 58.5031003 63.6791415M64.4100586 80.7084878C64.4100586 82.686439 64.8390972 84.1838049 65.6977604 85.2017561 66.5564237 86.219122 67.603817 86.7278049 68.8405265 86.7278049 70.2829635 86.7278049 71.4047938 86.1734634 72.2060175 85.0641951 73.0072411 83.9555122 73.408146 82.5436098 73.408146 80.8284878 73.408146 79.2737561 73.0242386 77.8677073 72.2575959 76.6097561 71.4903671 75.3523902 70.3802591 74.723122 68.9260997 74.723122 68.2737501 74.723122 67.6899763 74.8519024 67.1747784 75.1094634 66.6595805 75.366439 66.2070972 75.7410732 65.8179147 76.2327805 65.4287321 76.7239024 65.1198478 77.2788293 64.8906756 77.8958049 64.5700689 78.7879024 64.4100586 79.7250732 64.4100586 80.7084878M78.3016473 81C78.3016473 82.086439 78.1187784 83.1921951 77.7524545 84.318439 77.3861306 85.4446829 76.828146 86.4362927 76.0779147 87.2938537 75.3282694 88.1514146 74.3494519 88.8684878 73.1414622 89.4462439 71.9340586 90.0228293 70.5174108 90.312 68.8915188 90.312 66.1215239 90.312 63.8550046 89.4286829 62.0919609 87.6626341 60.3289172 85.896 59.4473954 83.6124878 59.4473954 80.8115122 59.4473954 77.964878 60.3289172 75.6491707 62.0919609 73.8661463 63.8550046 72.0825366 66.1273851 71.190439 68.9091023 71.190439 71.6790972 71.190439 73.9374108 72.0825366 75.682871 73.8661463 77.4289172 75.6491707 78.3016473 78.0275122 78.3016473 81M81.9936062 71.7221854L86.3039198 71.7221854 86.3894931 76.318478C86.6983774 74.8550634 87.3337296 73.6972098 88.2955496 72.8455024 89.2573697 71.9937951 90.3504802 71.5676488 91.5754674 71.5676488 92.0215033 71.5676488 92.451128 71.608039 92.8631692 71.6876488L92.8631692 76.1124293C92.5079815 75.9180878 92.0273645 75.8209171 91.4207321 75.8209171 90.5737913 75.8209171 89.8610715 75.9865756 89.2831589 76.318478 88.7046602 76.6497951 88.232835 77.0929171 87.8665111 77.6472585 87.5001871 78.2021854 87.2422951 78.8279415 87.0934211 79.5251122 86.944547 80.2222829 86.87011 81.1717463 86.87011 82.3717463L86.87011 89.8146732 82.1483414 89.8146732 82.1483414 77.2099902 82.0281871 72.2197463 81.9936062 71.7221854zM103.681095 75.2549268C102.593846 75.2549268 101.671882 75.7091707 100.916375 76.6182439 100.160869 77.5273171 99.7834087 78.9193171 99.7834087 80.7942439 99.7834087 82.7376585 100.186658 84.1641951 100.993743 85.0726829 101.800828 85.9817561 102.730997 86.4365854 103.784252 86.4365854 104.89436 86.4365854 105.850319 85.9706341 106.651542 85.0387317 107.453352 84.1068293 107.853671 82.7206829 107.853671 80.8797073 107.853671 79.2447805 107.487347 77.8990244 106.754699 76.8412683 106.022051 75.7840976 104.997517 75.2549268 103.681095 75.2549268M107.905249 74.328878L107.905249 63.4732683 112.541445 63.4732683 112.541445 89.8147317 108.076982 89.8147317 108.076982 87.173561C107.47035 88.0656585 106.669126 88.7686829 105.672725 89.2832195 104.67691 89.7977561 103.577938 90.0547317 102.37581 90.0547317 101.379995 90.0547317 100.490267 89.8978537 99.7060411 89.5835122 98.9218149 89.2685854 98.2806015 88.8945366 97.7829871 88.4601951 97.2847866 88.0252683 96.8211671 87.468 96.3915424 86.7878049 95.9625039 86.1076098 95.6102468 85.2160976 95.3359434 84.1126829 95.061054 83.0092683 94.9239023 81.8233171 94.9239023 80.5542439 94.9239023 77.730439 95.5733213 75.4978537 96.8727455 73.8570732 98.1721697 72.216878 99.9492802 71.3961951 102.204077 71.3961951 103.440787 71.3961951 104.505177 71.6309268 105.398422 72.0992195 106.29108 72.5686829 107.126884 73.3115122 107.905249 74.328878M127.37768 65.4283317L132.340343 65.4283317 132.340343 79.7820878C132.340343 81.051161 132.431778 82.0404293 132.615233 82.7493073 132.798102 83.4581854 133.101711 84.0728195 133.524888 84.5926244 133.948652 85.1130146 134.440991 85.5274537 135.001906 85.8359415 135.562822 86.1450146 136.341187 86.2989659 137.337002 86.2989659 138.97403 86.2989659 140.238873 85.8019902 141.132117 84.8068683 142.024775 83.8123317 142.471397 82.1376 142.471397 79.7820878L142.471397 65.4283317 147.244744 65.4283317 147.244744 79.7820878C147.244744 81.5885268 147.110523 83.0349659 146.841495 84.1214049 146.572467 85.2072585 146.197351 86.0788683 145.716734 86.7362341 145.236117 87.3936 144.608971 87.9883317 143.836467 88.5198439 143.063963 89.0513561 142.225228 89.4429659 141.320847 89.6946732 140.039007 90.0488195 138.665146 90.2261854 137.19985 90.2261854 135.74569 90.2261854 134.443922 90.0634537 133.293372 89.7374049 132.142822 89.4119415 131.186863 88.9629659 130.425495 88.3916488 129.664128 87.8197463 129.072148 87.1910634 128.648385 86.5050146 128.224621 85.8189659 127.887017 84.8870634 127.634986 83.7093073 127.463253 82.9091122 127.37768 81.4632585 127.37768 79.3705756L127.37768 65.4283317zM156.843896 71.7221854L156.96405 74.4833561C158.257613 72.4486244 160.209387 71.4306732 162.819372 71.4306732 163.80405 71.4306732 164.688503 71.5740878 165.472729 71.859161 166.256955 72.1454049 166.900513 72.5370146 167.404575 73.0339902 167.90805 73.5315512 168.285511 74.0776976 168.537541 74.6718439 168.789572 75.2665756 168.972441 76.1065756 169.08732 77.1930146 169.133038 77.7075512 169.161757 79.0679415 169.172894 81.2741854L169.172894 89.8146732 164.48512 89.8146732 164.48512 80.7426732C164.48512 78.7764293 164.313387 77.4499902 163.969922 76.7639415 163.443588 75.7348683 162.567927 75.2209171 161.34294 75.2209171 160.575711 75.2209171 159.854786 75.4380878 159.178991 75.8724293 158.503783 76.3073561 158.011444 76.9243317 157.702559 77.7245268 157.393089 78.524722 157.23894 79.6966244 157.23894 81.2402341L157.23894 89.8146732 152.516585 89.8146732 152.516585 75.2894049C152.516585 74.043161 152.465007 72.8542829 152.362436 71.7221854L156.843896 71.7221854zM174.066571 89.814439L178.788925 89.814439 178.788925 71.7219512 174.066571 71.7219512 174.066571 89.814439zM174.066571 68.4292683L178.788925 68.4292683 178.788925 64.0044878 174.066571 64.0044878 174.066571 68.4292683z" mask="url(#ouh-b)"/>
        <polygon fill="#1D1D1B" points="200.476 71.722 193.814 89.815 188.473 89.815 181.759 71.722 186.842 71.722 191.358 84.944 195.754 71.722" mask="url(#ouh-b)"/>
        <path fill="#1D1D1B" d="M206.125891 78.959239L214.059002 78.959239C213.990426 77.4612878 213.607104 76.3414829 212.908451 75.5980683 212.210385 74.8546537 211.283146 74.4835317 210.126734 74.4835317 209.050621 74.4835317 208.209541 74.8089951 207.602909 75.4605073 206.744246 76.3526049 206.251906 77.5186537 206.125891 78.959239M218.420894 82.2173854L206.160472 82.2173854C206.194467 83.0292878 206.443567 83.7926049 206.907187 84.5073366 207.370806 85.2214829 207.969233 85.755922 208.701881 86.1106537 209.434529 86.4648 210.333048 86.6421659 211.397439 86.6421659 212.359259 86.6421659 213.309356 86.5081171 214.247732 86.2394341 215.186693 85.9707512 216.182508 85.5387512 217.235762 84.9446049L217.287341 88.8027512C216.8753 89.1118244 216.053562 89.4261659 214.8233 89.746361 213.592451 90.0659707 212.330539 90.226361 211.036976 90.226361 209.113922 90.226361 207.439382 89.8687024 206.014529 89.1545561 204.589089 88.4398244 203.498909 87.3393366 202.743403 85.8530927 201.98731 84.3668488 201.60985 82.6523122 201.60985 80.7083122 201.60985 78.7877268 201.973243 77.0901659 202.70003 75.6150439 203.427403 74.1405073 204.483002 73.0283122 205.868585 72.2796293 207.253583 71.5309463 208.781593 71.1563122 210.453202 71.1563122 212.239104 71.1563122 213.767115 71.5994341 215.037819 72.4850927 216.308523 73.3713366 217.198837 74.5748488 217.708174 76.0950439 218.217511 77.6158244 218.471886 79.3368 218.471886 81.2573854 218.471886 81.4745561 218.454888 81.7947512 218.420894 82.2173854M222.112501 71.7221854L226.422814 71.7221854 226.508388 76.318478C226.817272 74.8550634 227.452624 73.6972098 228.414444 72.8455024 229.376264 71.9937951 230.469375 71.5676488 231.694362 71.5676488 232.140398 71.5676488 232.570023 71.608039 232.982064 71.6876488L232.982064 76.1124293C232.626876 75.9180878 232.146259 75.8209171 231.539627 75.8209171 230.692686 75.8209171 229.979966 75.9865756 229.402053 76.318478 228.823555 76.6497951 228.35173 77.0929171 227.985406 77.6472585 227.619082 78.2021854 227.36119 78.8279415 227.212316 79.5251122 227.063442 80.2222829 226.989005 81.1717463 226.989005 82.3717463L226.989005 89.8146732 222.267236 89.8146732 222.267236 77.2099902 222.147082 72.2197463 222.112501 71.7221854zM247.680737 72.048L247.354269 75.6321951C245.923555 75.0837073 244.629992 74.8091707 243.47358 74.8091707 242.363472 74.8091707 241.544665 75.0122927 241.018331 75.4179512 240.491411 75.8236098 240.228244 76.2725854 240.228244 76.7642927 240.228244 77.1412683 240.38591 77.4673171 240.700655 77.7418537 241.015401 78.0158049 241.293221 78.1644878 241.533529 78.1873171 241.590383 78.1990244 241.647822 78.2107317 241.705262 78.2218537L245.002177 79.3709268C246.089426 79.7479024 246.936367 80.3654634 247.543586 81.2230244 248.150218 82.0805854 248.453241 83.1207805 248.453241 84.3441951 248.453241 85.361561 248.264511 86.2103415 247.887051 86.8905366 247.509005 87.5713171 247.031318 88.1397073 246.45282 88.596878 245.874907 89.0546341 245.299925 89.3918049 244.727287 89.6089756 243.811185 89.9625366 242.62664 90.1404878 241.17248 90.1404878 239.340861 90.1404878 237.481107 89.8718049 235.592048 89.334439L235.883935 85.4247805C237.704419 86.1793171 239.226568 86.5562927 240.451555 86.5562927 241.596244 86.5562927 242.466629 86.328 243.061539 85.8702439 243.485303 85.5500488 243.696892 85.0817561 243.696892 84.4641951 243.696892 84.0638049 243.599596 83.7383415 243.405005 83.4866341 243.210413 83.2349268 242.901529 83.0405854 242.477766 82.9036098L240.434557 82.2520976C238.580079 81.6573659 237.309375 80.9373659 236.622444 80.0909268 235.935514 79.2450732 235.592048 78.1820488 235.592048 76.9012683 235.592048 75.3576585 236.152963 74.1061463 237.274794 73.145561 238.68265 71.9449756 240.537128 71.3449756 242.838228 71.3449756 244.315246 71.3449756 245.929416 71.579122 247.680737 72.048M252.282879 89.814439L257.005234 89.814439 257.005234 71.7219512 252.282879 71.7219512 252.282879 89.814439zM252.282293 68.4292683L257.004648 68.4292683 257.004648 64.0044878 252.282293 64.0044878 252.282293 68.4292683zM263.495614 75.3063805L260.043964 75.3063805 260.043964 71.8076488 263.547193 71.8076488 263.547193 68.1034537 268.063234 66.6113561 268.063234 71.8076488 272.287388 71.8076488 272.287388 75.3063805 268.063234 75.3063805 268.063234 81.9262829C268.063234 83.5149659 268.200386 84.5329171 268.475275 84.9783805 268.944756 85.7329171 269.723121 86.110478 270.81037 86.110478 271.360149 86.110478 271.921064 86.019161 272.493702 85.8359415L272.613856 89.5746732C271.686617 89.872039 270.62164 90.020722 269.419512 90.020722 268.549712 90.020722 267.791275 89.920039 267.144787 89.7204293 266.497712 89.5202341 265.945589 89.2404293 265.487244 88.8798439 265.029486 88.5198439 264.663162 88.1141854 264.388272 87.6622829 264.113969 87.2109659 263.884797 86.5565268 263.701928 85.6989659 263.56419 85.0702829 263.495614 84.1383805 263.495614 82.9038439L263.495614 75.3063805zM288.308344 71.7221854L293.116272 71.7221854 285.835512 91.0667707 284.976848 93.0218927C284.587666 93.9245268 284.126977 94.6825756 283.594781 95.2942829 283.062586 95.9054049 282.363933 96.411161 281.499995 96.8115512 280.63547 97.2119415 279.717023 97.4121366 278.744067 97.4121366 278.366021 97.4121366 277.782247 97.366478 276.992159 97.2745756 276.442967 97.2060878 275.927769 97.0919415 275.447152 96.9315512L275.773033 93.4334049C276.540262 93.6616976 277.30163 93.7764293 278.057136 93.7764293 278.812643 93.7764293 279.499573 93.5018927 280.117342 92.9534049 280.735697 92.4043317 281.147738 91.6726244 281.354051 90.7582829L274.313599 71.7221854 279.516571 71.7221854 283.912458 85.0129171 288.308344 71.7221854z" mask="url(#ouh-b)"/>
        <polygon fill="#1D1D1B" points="306.149 89.815 306.149 65.428 311.112 65.428 311.112 75.186 320.883 75.186 320.883 65.428 325.845 65.428 325.845 89.815 320.883 89.815 320.883 79.319 311.112 79.319 311.112 89.815" mask="url(#ouh-b)"/>
        <path fill="#1D1D1B" d="M334.207616 80.7084878C334.207616 82.686439 334.636655 84.1838049 335.495318 85.2017561 336.353981 86.219122 337.401375 86.7278049 338.638084 86.7278049 340.080521 86.7278049 341.202352 86.1734634 342.003575 85.0641951 342.804799 83.9555122 343.205704 82.5436098 343.205704 80.8284878 343.205704 79.2737561 342.821796 77.8677073 342.055154 76.6097561 341.287925 75.3523902 340.177817 74.723122 338.723658 74.723122 338.071308 74.723122 337.487534 74.8519024 336.972336 75.1094634 336.457138 75.366439 336.004655 75.7410732 335.615472 76.2327805 335.22629 76.7239024 334.917406 77.2788293 334.688233 77.8958049 334.367627 78.7879024 334.207616 79.7250732 334.207616 80.7084878M348.099205 81C348.099205 82.086439 347.916336 83.1921951 347.550012 84.318439 347.183688 85.4446829 346.625704 86.4362927 345.875472 87.2938537 345.125827 88.1514146 344.14701 88.8684878 342.93902 89.4462439 341.731616 90.0228293 340.314969 90.312 338.689077 90.312 335.919082 90.312 333.652562 89.4286829 331.889519 87.6626341 330.126475 85.896 329.244953 83.6124878 329.244953 80.8115122 329.244953 77.964878 330.126475 75.6491707 331.889519 73.8661463 333.652562 72.0825366 335.924943 71.190439 338.70666 71.190439 341.476655 71.190439 343.734969 72.0825366 345.480429 73.8661463 347.226475 75.6491707 348.099205 78.0275122 348.099205 81M362.986902 72.048L362.660434 75.6321951C361.229719 75.0837073 359.936156 74.8091707 358.779745 74.8091707 357.669637 74.8091707 356.85083 75.0122927 356.324496 75.4179512 355.797575 75.8236098 355.534408 76.2725854 355.534408 76.7642927 355.534408 77.1412683 355.692074 77.4673171 356.00682 77.7418537 356.321565 78.0158049 356.599385 78.1644878 356.839694 78.1873171 356.896547 78.1990244 356.953987 78.2107317 357.011426 78.2218537L360.308341 79.3709268C361.395591 79.7479024 362.242532 80.3654634 362.84975 81.2230244 363.456383 82.0805854 363.759406 83.1207805 363.759406 84.3441951 363.759406 85.361561 363.570676 86.2103415 363.193215 86.8905366 362.815169 87.5713171 362.337483 88.1397073 361.758984 88.596878 361.181071 89.0546341 360.606089 89.3918049 360.033452 89.6089756 359.117349 89.9625366 357.932804 90.1404878 356.478645 90.1404878 354.647025 90.1404878 352.787272 89.8718049 350.898213 89.334439L351.1901 85.4247805C353.010583 86.1793171 354.532732 86.5562927 355.757719 86.5562927 356.902408 86.5562927 357.772794 86.328 358.367704 85.8702439 358.791467 85.5500488 359.003056 85.0817561 359.003056 84.4641951 359.003056 84.0638049 358.90576 83.7383415 358.711169 83.4866341 358.516578 83.2349268 358.207694 83.0405854 357.78393 82.9036098L355.740722 82.2520976C353.886244 81.6573659 352.615539 80.9373659 351.928609 80.0909268 351.241678 79.2450732 350.898213 78.1820488 350.898213 76.9012683 350.898213 75.3576585 351.459128 74.1061463 352.580958 73.145561 353.988814 71.9449756 355.843293 71.3449756 358.144393 71.3449756 359.621411 71.3449756 361.23558 71.579122 362.986902 72.048M372.190834 80.8799415C372.190834 82.6746732 372.594083 84.0438439 373.401168 84.9874537 374.208253 85.930478 375.161281 86.4022829 376.260253 86.4022829 377.32523 86.4022829 378.263605 85.9135024 379.076551 84.9359415 379.889497 83.9583805 380.295677 82.5376976 380.295677 80.6738927 380.295677 78.8452098 379.889497 77.4274537 379.076551 76.4212098 378.44706 75.6438439 377.600119 75.255161 376.535142 75.255161 375.321878 75.255161 374.294412 75.7380878 373.452747 76.7039415 372.611667 77.6703805 372.190834 79.0623805 372.190834 80.8799415M372.190834 87.3283317L372.190834 97.2578927 367.50306 97.2578927 367.50306 77.0042341 367.434484 73.4715512 367.382906 72.2194537 367.348325 71.7218927 371.898947 71.7218927 371.98452 74.5345756C372.602875 73.551161 373.401168 72.7825756 374.379986 72.2282341 375.358803 71.6733073 376.477703 71.3964293 377.737271 71.3964293 379.809199 71.3964293 381.491944 72.0537951 382.785507 73.3685268 384.376819 75.0034537 385.172181 77.3812098 385.172181 80.5023805 385.172181 82.3778927 384.886155 84.0467707 384.314104 85.5101854 383.741466 86.9736 382.871667 88.0969171 381.703533 88.8801366 380.535986 89.6633561 379.150988 90.0549659 377.548541 90.0549659 376.311831 90.0549659 375.241579 89.8091122 374.337199 89.3174049 373.432819 88.8256976 372.717168 88.162478 372.190834 87.3283317M389.087568 89.814439L393.809923 89.814439 393.809923 71.7219512 389.087568 71.7219512 389.087568 89.814439zM389.087568 68.4292683L393.809923 68.4292683 393.809923 64.0044878 389.087568 64.0044878 389.087568 68.4292683zM400.300421 75.3063805L396.84877 75.3063805 396.84877 71.8076488 400.351999 71.8076488 400.351999 68.1034537 404.86804 66.6113561 404.86804 71.8076488 409.092194 71.8076488 409.092194 75.3063805 404.86804 75.3063805 404.86804 81.9262829C404.86804 83.5149659 405.005192 84.5329171 405.280081 84.9783805 405.749562 85.7329171 406.527927 86.110478 407.615176 86.110478 408.164955 86.110478 408.72587 86.019161 409.298508 85.8359415L409.418662 89.5746732C408.491423 89.872039 407.426446 90.020722 406.224318 90.020722 405.354518 90.020722 404.596081 89.920039 403.949593 89.7204293 403.302518 89.5202341 402.750395 89.2404293 402.29205 88.8798439 401.834292 88.5198439 401.467968 88.1141854 401.193079 87.6622829 400.918775 87.2109659 400.689603 86.5565268 400.506734 85.6989659 400.368996 85.0702829 400.300421 84.1383805 400.300421 82.9038439L400.300421 75.3063805zM423.687946 81.5659317C423.104172 81.5202732 422.709128 81.4974439 422.503401 81.4974439 421.358125 81.4974439 420.307802 81.6004683 419.352429 81.8059317 418.39647 82.0119805 417.700748 82.3632 417.265848 82.860761 416.830948 83.358322 416.613498 83.9267122 416.613498 84.5671024 416.613498 85.2531512 416.859668 85.8192 417.351421 86.2646634 417.84376 86.7107122 418.52483 86.9337366 419.395215 86.9337366 420.161858 86.9337366 420.909159 86.7077854 421.635946 86.2564683 422.362732 85.8045659 422.886722 85.2186146 423.207329 84.4986146 423.527935 83.7780293 423.687946 82.8004683 423.687946 81.5659317L423.687946 81.5659317zM423.928254 89.8149073L423.8081 87.1392C423.407195 87.985639 422.677478 88.6974439 421.618948 89.2746146 420.559832 89.8512 419.377632 90.1403707 418.072933 90.1403707 416.93938 90.1403707 415.891987 89.9062244 414.930753 89.4373463 413.968933 88.9684683 413.227493 88.2970537 412.70702 87.4225171 412.185961 86.5479805 411.925724 85.5446634 411.925724 84.4125659 411.925724 82.3661268 412.858239 80.8225171 414.724439 79.782322 416.155154 78.9932488 418.313241 78.5992976 421.198115 78.5992976 421.919041 78.5992976 422.737848 78.6391024 423.653365 78.7192976 423.665087 78.5021268 423.670948 78.3358829 423.670948 78.2217366 423.670948 77.0902244 423.338619 76.212761 422.674547 75.5893463 422.011061 74.9665171 420.991802 74.6545171 419.618526 74.6545171 418.622125 74.6545171 417.615174 74.8494439 416.595915 75.2375415 415.577241 75.6268098 414.712717 76.1068098 414.003514 76.6781268L413.882773 72.6139317C414.489992 72.3054439 415.405508 72.0197854 416.630496 71.7563707 417.855483 71.4935415 419.062886 71.3618341 420.253879 71.3618341 421.776028 71.3618341 423.06666 71.5737366 424.125776 71.9963707 425.184892 72.4195902 426.045899 73.0599805 426.709971 73.9175415 427.16773 74.5233951 427.4772 75.3148098 427.63721 76.2923707 427.797807 77.2699317 427.877519 78.7017366 427.877519 80.5883707L427.877519 83.2634927 427.929097 85.9046634 427.998259 88.6828098 428.083832 89.8149073 423.928254 89.8149073z" mask="url(#ouh-b)"/>
        <polygon fill="#1D1D1B" points="432.806 89.815 437.528 89.815 437.528 63.474 432.806 63.474" mask="url(#ouh-b)"/>
        <path fill="#1D1D1B" d="M453.566261,72.048 L453.239793,75.6321951 C451.809079,75.0837073 450.515516,74.8091707 449.359104,74.8091707 C448.248996,74.8091707 447.430189,75.0122927 446.903855,75.4179512 C446.376935,75.8236098 446.113768,76.2725854 446.113768,76.7642927 C446.113768,77.1412683 446.271433,77.4673171 446.586179,77.7418537 C446.900924,78.0158049 447.178744,78.1644878 447.419053,78.1873171 C447.475906,78.1990244 447.533346,78.2107317 447.590786,78.2218537 L450.887701,79.3709268 C451.97495,79.7479024 452.821891,80.3654634 453.42911,81.2230244 C454.035742,82.0805854 454.338765,83.1207805 454.338765,84.3441951 C454.338765,85.361561 454.150035,86.2103415 453.772575,86.8905366 C453.394529,87.5713171 452.916842,88.1397073 452.338343,88.596878 C451.760431,89.0546341 451.185449,89.3918049 450.612811,89.6089756 C449.696708,89.9625366 448.512163,90.1404878 447.058004,90.1404878 C445.226385,90.1404878 443.366631,89.8718049 441.477572,89.334439 L441.769459,85.4247805 C443.589942,86.1793171 445.112092,86.5562927 446.337079,86.5562927 C447.481768,86.5562927 448.352153,86.328 448.947063,85.8702439 C449.370827,85.5500488 449.582415,85.0817561 449.582415,84.4641951 C449.582415,84.0638049 449.48512,83.7383415 449.290529,83.4866341 C449.095937,83.2349268 448.787053,83.0405854 448.363289,82.9036098 L446.320081,82.2520976 C444.465603,81.6573659 443.194899,80.9373659 442.507968,80.0909268 C441.821038,79.2450732 441.477572,78.1820488 441.477572,76.9012683 C441.477572,75.3576585 442.038487,74.1061463 443.160318,73.145561 C444.568174,71.9449756 446.422652,71.3449756 448.723752,71.3449756 C450.20077,71.3449756 451.81494,71.579122 453.566261,72.048" mask="url(#ouh-b)"/>
        <polygon fill="#005EB8" points="217.396 119.083 217.396 102.826 221.357 102.826 227.79 115.288 227.79 102.826 230.744 102.826 230.744 119.083 226.76 119.083 220.327 106.621 220.327 119.083" mask="url(#ouh-b)"/>
        <polygon fill="#005EB8" points="234.522 119.083 234.522 102.826 237.83 102.826 237.83 109.331 244.344 109.331 244.344 102.826 247.652 102.826 247.652 119.083 244.344 119.083 244.344 112.086 237.83 112.086 237.83 119.083" mask="url(#ouh-b)"/>
        <path fill="#005EB8" d="M260.484901,103.259883 L260.187153,105.969541 C259.752253,105.748273 259.215955,105.565054 258.578844,105.420468 C257.941734,105.275883 257.355615,105.203298 256.821662,105.203298 C255.981754,105.203298 255.339369,105.390615 254.892747,105.763493 C254.446124,106.136956 254.222813,106.567785 254.222813,107.055395 C254.222813,107.428859 254.34707,107.770127 254.594998,108.078615 C254.842926,108.387688 255.325888,108.68681 256.043297,108.976566 L258.504407,109.982224 C259.41289,110.348078 260.124438,110.908273 260.639636,111.66281 C261.154834,112.417932 261.41214,113.279005 261.41214,114.2472 C261.41214,115.123493 261.234546,115.887395 260.879944,116.539493 C260.524757,117.191005 260.068757,117.712566 259.511944,118.105346 C258.955132,118.498127 258.302196,118.782029 257.55431,118.957054 C256.806423,119.132078 256.020438,119.220468 255.196356,119.220468 C253.89107,119.220468 252.535965,119.003298 251.132212,118.568371 L251.42996,115.584761 C251.933435,115.881541 252.513106,116.123883 253.170145,116.310615 C253.826597,116.497346 254.459605,116.59042 255.07034,116.59042 C256.024541,116.59042 256.751328,116.379102 257.2507,115.955883 C257.750659,115.533249 258.000932,115.039785 258.000932,114.475493 C258.000932,114.048761 257.864952,113.677054 257.594166,113.360956 C257.323379,113.044859 256.886135,112.756859 256.283605,112.497541 L254.028222,111.525834 C253.326052,111.221444 252.784479,110.912371 252.402916,110.599785 C251.899441,110.195883 251.515533,109.723493 251.252366,109.182029 C250.989199,108.640566 250.857322,108.01598 250.857322,107.307102 C250.857322,105.942615 251.349662,104.826322 252.33434,103.957054 C253.318433,103.088371 254.76087,102.654029 256.661651,102.654029 C257.890155,102.654029 259.164376,102.85598 260.484901,103.259883" mask="url(#ouh-b)"/>
        <polygon fill="#005EB8" points="270.799 119.083 270.799 102.905 279.866 102.905 279.866 105.615 274.108 105.615 274.108 109.514 279.591 109.514 279.591 112.178 274.108 112.178 274.108 119.083" mask="url(#ouh-b)"/>
        <path fill="#005EB8" d="M284.95991 113.012195C284.95991 114.331024 285.245935 115.329073 285.818573 116.007512 286.390624 116.685951 287.089277 117.024878 287.913359 117.024878 288.875179 117.024878 289.623066 116.655512 290.15702 115.916195 290.690974 115.176878 290.958244 114.23561 290.958244 113.09239 290.958244 112.055707 290.702696 111.118537 290.191601 110.279707 289.680506 109.440878 288.939652 109.022341 287.970799 109.022341 287.535899 109.022341 287.146131 109.107805 286.803251 109.279317 286.459786 109.450829 286.157935 109.70078 285.898871 110.028 285.639221 110.355805 285.433493 110.725756 285.280516 111.137268 285.067169 111.731415 284.95991 112.356585 284.95991 113.012195M294.221164 113.206537C294.221164 113.930634 294.099251 114.668195 293.85484 115.418634 293.610429 116.169659 293.238244 116.830537 292.738285 117.402439 292.238912 117.974341 291.586562 118.452585 290.781236 118.837171 289.97591 119.221756 289.031087 119.414927 287.94794 119.414927 286.100496 119.414927 284.589483 118.826049 283.414316 117.648293 282.239149 116.470537 281.651272 114.948585 281.651272 113.080683 281.651272 111.182927 282.239149 109.639317 283.414316 108.450439 284.589483 107.261561 286.104598 106.666829 287.959077 106.666829 289.806521 106.666829 291.311673 107.261561 292.475118 108.450439 293.639149 109.639317 294.221164 111.224488 294.221164 113.206537M296.796802 107.021327L299.944843 107.021327 299.944843 112.95518 299.967702 114.018205C299.99056 114.848839 300.128298 115.45118 300.379743 115.824644 300.776545 116.403571 301.345666 116.693327 302.085347 116.693327 302.520833 116.693327 302.914118 116.585034 303.264617 116.367863 303.615702 116.150693 303.895866 115.855083 304.106283 115.48162 304.316113 115.108156 304.470848 114.619961 304.569902 114.018205 304.61562 113.736644 304.638478 113.256059 304.638478 112.57762L304.638478 107.021327 307.786519 107.021327 307.786519 114.395766 307.866817 118.374498 307.94653 119.08279 304.913368 119.08279 304.833069 117.2424C304.474365 117.844156 303.957409 118.33001 303.281614 118.699961 302.606406 119.069912 301.82218 119.254302 300.929522 119.254302 300.295928 119.254302 299.727393 119.164741 299.223918 118.98562 298.719856 118.807083 298.309573 118.572351 297.993069 118.282595 297.676566 117.992839 297.436257 117.676741 297.272144 117.333717 297.107445 116.990693 296.979671 116.472644 296.888237 115.778985 296.82728 115.314205 296.796802 114.429717 296.796802 113.126693L296.796802 107.021327zM314.002538 107.021327L314.082836 108.862302C314.945016 107.505424 316.246198 106.826985 317.986384 106.826985 318.642836 106.826985 319.232471 106.9224 319.754702 107.112644 320.27752 107.302888 320.706558 107.564546 321.04299 107.895863 321.378836 108.227766 321.630867 108.591863 321.798497 108.987571 321.966126 109.383863 322.088625 109.944059 322.164821 110.668156 322.195299 111.01118 322.214641 111.918498 322.221674 113.389522L322.221674 119.08279 319.096492 119.08279 319.096492 113.03479C319.096492 111.724156 318.982198 110.839668 318.753026 110.382498 318.402528 109.696449 317.818754 109.353424 317.001705 109.353424 316.49061 109.353424 316.009993 109.49801 315.559268 109.788351 315.109129 110.078107 314.780903 110.48962 314.575175 111.022888 314.368862 111.556156 314.265705 112.33762 314.265705 113.366693L314.265705 119.08279 311.117664 119.08279 311.117664 109.399083C311.117664 108.569034 311.083669 107.775863 311.014507 107.021327L314.002538 107.021327zM330.670276 109.376546C329.945247 109.376546 329.330995 109.679766 328.826934 110.28562 328.323458 110.891473 328.071427 111.819278 328.071427 113.06962 328.071427 114.365034 328.340456 115.315668 328.878512 115.922107 329.416569 116.527961 330.036682 116.830595 330.738851 116.830595 331.479119 116.830595 332.116815 116.520351 332.650769 115.899278 333.184723 115.27762 333.451993 114.353912 333.451993 113.1264 333.451993 112.036449 333.207581 111.139083 332.719345 110.434302 332.231108 109.729522 331.547695 109.376546 330.670276 109.376546M333.486574 108.758985L333.486574 101.522107 336.577175 101.522107 336.577175 119.083083 333.600867 119.083083 333.600867 117.322302C333.196445 117.917034 332.661905 118.385912 331.99842 118.728937 331.334348 119.071376 330.6017 119.242888 329.800476 119.242888 329.136404 119.242888 328.542666 119.138107 328.020435 118.928546 327.497617 118.718985 327.069751 118.46962 326.738008 118.179863 326.406265 117.890107 326.096795 117.5184 325.810769 117.065327 325.524743 116.611668 325.28971 116.017522 325.106841 115.281717 324.923386 114.545912 324.831952 113.755083 324.831952 112.909229 324.831952 111.026693 325.265093 109.538107 326.131376 108.444644 326.997072 107.35118 328.182204 106.803863 329.685597 106.803863 330.510265 106.803863 331.219468 106.960156 331.814965 107.272741 332.410461 107.585327 332.967273 108.080546 333.486574 108.758985M346.788528 113.583863C346.399345 113.553424 346.136178 113.538205 345.99844 113.538205 345.2359 113.538205 344.534903 113.606693 343.897792 113.743668 343.260682 113.881229 342.797062 114.115376 342.506934 114.447278 342.216805 114.778595 342.072034 115.157327 342.072034 115.584644 342.072034 116.041815 342.236147 116.419376 342.564373 116.716741 342.892599 117.013522 343.346841 117.162205 343.926512 117.162205 344.437607 117.162205 344.935808 117.011766 345.420528 116.710888 345.905247 116.409424 346.254574 116.018985 346.467921 115.538985 346.681268 115.058985 346.788528 114.406888 346.788528 113.583863L346.788528 113.583863zM346.948538 119.083376L346.868826 117.299766C346.601556 117.864059 346.115078 118.338205 345.408805 118.72279 344.703119 119.107961 343.915376 119.300546 343.04499 119.300546 342.289484 119.300546 341.591417 119.143668 340.950204 118.831668 340.30899 118.519083 339.815479 118.071278 339.467911 117.488254 339.120342 116.905229 338.946851 116.236156 338.946851 115.48162 338.946851 114.117132 339.569309 113.088059 340.813052 112.394985 341.767252 111.868741 343.205587 111.605912 345.128641 111.605912 345.609258 111.605912 346.154934 111.632839 346.765669 111.686107 346.773288 111.541522 346.776805 111.430302 346.776805 111.354205 346.776805 110.599668 346.555839 110.014888 346.113319 109.599278 345.6708 109.183668 344.991489 108.976449 344.075386 108.976449 343.411314 108.976449 342.740209 109.1064 342.060898 109.365132 341.381001 109.623863 340.805432 109.944059 340.331849 110.325717L340.252137 107.616059C340.656558 107.41001 341.266707 107.219766 342.083756 107.044156 342.900219 106.868546 343.704959 106.781327 344.49915 106.781327 345.51372 106.781327 346.374728 106.9224 347.080414 107.204546 347.786101 107.486107 348.361083 107.912839 348.803602 108.484741 349.108384 108.888644 349.314697 109.416644 349.421371 110.068156 349.52863 110.719668 349.581967 111.6744 349.581967 112.932351L349.581967 114.715961 349.615962 116.476156 349.661679 118.328254 349.719119 119.083376 346.948538 119.083376zM353.805946 109.410849L351.504845 109.410849 351.504845 107.078751 353.840526 107.078751 353.840526 104.609093 356.85083 103.614556 356.85083 107.078751 359.667128 107.078751 359.667128 109.410849 356.85083 109.410849 356.85083 113.823922C356.85083 114.883434 356.94285 115.561873 357.125719 115.859239 357.438706 116.362068 357.957421 116.613776 358.682449 116.613776 359.048773 116.613776 359.422717 116.552312 359.80428 116.430556L359.884578 118.923044C359.266223 119.120898 358.556434 119.22041 357.75521 119.22041 357.175539 119.22041 356.669719 119.153678 356.238336 119.020215 355.807539 118.886751 355.438871 118.70002 355.134089 118.46002 354.828722 118.22002 354.584311 117.94958 354.401442 117.648117 354.217987 117.347239 354.06501 116.911141 353.943097 116.339239 353.851663 115.920117 353.805946 115.299044 353.805946 114.475434L353.805946 109.410849zM362.426221 119.082732L365.574262 119.082732 365.574262 107.021268 362.426221 107.021268 362.426221 119.082732zM362.426221 104.826146L365.574262 104.826146 365.574262 101.876488 362.426221 101.876488 362.426221 104.826146zM371.458186 113.012195C371.458186 114.331024 371.744212 115.329073 372.316849 116.007512 372.888901 116.685951 373.587554 117.024878 374.411636 117.024878 375.373456 117.024878 376.121343 116.655512 376.655297 115.916195 377.18925 115.176878 377.45652 114.23561 377.45652 113.09239 377.45652 112.055707 377.200973 111.118537 376.689878 110.279707 376.178783 109.440878 375.437929 109.022341 374.469076 109.022341 374.034176 109.022341 373.644407 109.107805 373.301528 109.279317 372.958063 109.450829 372.656212 109.70078 372.397148 110.028 372.137497 110.355805 371.93177 110.725756 371.778793 111.137268 371.565446 111.731415 371.458186 112.356585 371.458186 113.012195M380.719441 113.206537C380.719441 113.930634 380.597528 114.668195 380.353117 115.418634 380.108705 116.169659 379.73652 116.830537 379.236561 117.402439 378.737189 117.974341 378.084839 118.452585 377.279513 118.837171 376.474186 119.221756 375.529363 119.414927 374.446217 119.414927 372.598772 119.414927 371.087759 118.826049 369.912592 117.648293 368.737425 116.470537 368.149549 114.948585 368.149549 113.080683 368.149549 111.182927 368.737425 109.639317 369.912592 108.450439 371.087759 107.261561 372.602875 106.666829 374.457353 106.666829 376.304798 106.666829 377.80995 107.261561 378.973394 108.450439 380.137425 109.639317 380.719441 111.224488 380.719441 113.206537M386.168348 107.021327L386.248646 108.862302C387.110826 107.505424 388.412008 106.826985 390.152193 106.826985 390.808646 106.826985 391.398281 106.9224 391.920512 107.112644 392.44333 107.302888 392.872368 107.564546 393.2088 107.895863 393.544646 108.227766 393.796677 108.591863 393.964306 108.987571 394.131936 109.383863 394.254435 109.944059 394.33063 110.668156 394.361108 111.01118 394.38045 111.918498 394.387484 113.389522L394.387484 119.08279 391.262301 119.08279 391.262301 113.03479C391.262301 111.724156 391.148008 110.839668 390.918836 110.382498 390.568337 109.696449 389.984563 109.353424 389.167515 109.353424 388.65642 109.353424 388.175803 109.49801 387.725078 109.788351 387.274939 110.078107 386.946713 110.48962 386.740985 111.022888 386.534671 111.556156 386.431515 112.33762 386.431515 113.366693L386.431515 119.08279 383.283474 119.08279 383.283474 109.399083C383.283474 108.569034 383.249479 107.775863 383.180317 107.021327L386.168348 107.021327z" mask="url(#ouh-b)"/>
        <polygon fill="#005EB8" points="414.776 102.848 414.776 105.615 410.048 105.615 410.048 119.083 406.74 119.083 406.74 105.615 402.126 105.615 402.126 102.848" mask="url(#ouh-b)"/>
        <path fill="#005EB8" d="M414.192126 107.021327L417.065278 107.021327 417.122718 110.085132C417.329031 109.109327 417.752209 108.337815 418.393422 107.77001 419.034635 107.20279 419.76318 106.918302 420.579643 106.918302 420.877391 106.918302 421.164003 106.945229 421.438306 106.998498L421.438306 109.948156C421.202101 109.818205 420.881494 109.753815 420.477072 109.753815 419.912054 109.753815 419.436713 109.863863 419.051633 110.085132 418.666553 110.3064 418.351808 110.601424 418.107396 110.971376 417.862985 111.341327 417.691252 111.758693 417.592198 112.223473 417.493144 112.688254 417.443324 113.321034 417.443324 114.121229L417.443324 119.08279 414.295283 119.08279 414.295283 110.679863 414.214985 107.352644 414.192126 107.021327zM423.441834 107.021327L426.589876 107.021327 426.589876 112.95518 426.612734 114.018205C426.635593 114.848839 426.773331 115.45118 427.024775 115.824644 427.421577 116.403571 427.990698 116.693327 428.730379 116.693327 429.165865 116.693327 429.559151 116.585034 429.909649 116.367863 430.260734 116.150693 430.540899 115.855083 430.751315 115.48162 430.961146 115.108156 431.115881 114.619961 431.214935 114.018205 431.260652 113.736644 431.283511 113.256059 431.283511 112.57762L431.283511 107.021327 434.431552 107.021327 434.431552 114.395766 434.51185 118.374498 434.591562 119.08279 431.5584 119.08279 431.478102 117.2424C431.119397 117.844156 430.602441 118.33001 429.926647 118.699961 429.251439 119.069912 428.467212 119.254302 427.574554 119.254302 426.94096 119.254302 426.372426 119.164741 425.86895 118.98562 425.364888 118.807083 424.954606 118.572351 424.638102 118.282595 424.321598 117.992839 424.081289 117.676741 423.917176 117.333717 423.752477 116.990693 423.624703 116.472644 423.533269 115.778985 423.472313 115.314205 423.441834 114.429717 423.441834 113.126693L423.441834 107.021327zM445.146497 107.238556L444.929047 109.62802C443.974846 109.262166 443.112666 109.079532 442.341921 109.079532 441.601653 109.079532 441.055977 109.214751 440.704893 109.48519 440.353808 109.755629 440.177972 110.055337 440.177972 110.382556 440.177972 110.634263 440.282887 110.851434 440.493304 111.034068 440.703134 111.217288 440.887761 111.316215 441.048358 111.331434 441.086456 111.339044 441.124553 111.347239 441.162651 111.354263L443.360594 112.120507C444.085623 112.372215 444.650054 112.783727 445.055062 113.355044 445.459484 113.926946 445.661695 114.62002 445.661695 115.43602 445.661695 116.114459 445.535679 116.680507 445.283648 117.13358 445.032204 117.587239 444.713355 117.966556 444.328276 118.271532 443.94261 118.575922 443.559288 118.801288 443.177725 118.945873 442.56699 119.181776 441.776903 119.30002 440.808049 119.30002 439.587165 119.30002 438.346353 119.120898 437.087371 118.762654L437.281962 116.15602C438.495227 116.659434 439.510384 116.910556 440.326846 116.910556 441.089972 116.910556 441.670229 116.758361 442.067031 116.453385 442.34954 116.240312 442.490795 115.927727 442.490795 115.516215 442.490795 115.249288 442.425736 115.031532 442.296204 114.864117 442.166085 114.696702 441.959772 114.567337 441.677849 114.475434L440.31571 114.041093C439.079001 113.6448 438.23206 113.1648 437.774301 112.600507 437.316543 112.036215 437.087371 111.327337 437.087371 110.473873 437.087371 109.445385 437.461314 108.610654 438.209201 107.970263 439.148162 107.170068 440.384286 106.769678 441.918157 106.769678 442.902836 106.769678 443.978949 106.925971 445.146497 107.238556M449.153201 109.410849L446.852101 109.410849 446.852101 107.078751 449.187782 107.078751 449.187782 104.609093 452.198085 103.614556 452.198085 107.078751 455.014384 107.078751 455.014384 109.410849 452.198085 109.410849 452.198085 113.823922C452.198085 114.883434 452.290106 115.561873 452.472975 115.859239 452.785962 116.362068 453.304677 116.613776 454.029705 116.613776 454.396029 116.613776 454.769972 116.552312 455.151535 116.430556L455.231833 118.923044C454.613479 119.120898 453.903689 119.22041 453.102466 119.22041 452.522795 119.22041 452.016975 119.153678 451.585592 119.020215 451.154795 118.886751 450.786126 118.70002 450.481345 118.46002 450.175977 118.22002 449.931566 117.94958 449.748697 117.648117 449.565242 117.347239 449.412265 116.911141 449.290353 116.339239 449.198918 115.920117 449.153201 115.299044 449.153201 114.475434L449.153201 109.410849z" mask="url(#ouh-b)"/>
      </g>
    </g>
  </g>
</svg>
