<svg xmlns="http://www.w3.org/2000/svg" width="561" height="119" viewBox="0 0 561 119">
  <g fill="none" fill-rule="evenodd">
    <rect width="561" height="119" fill="#FFF"/>
    <path fill="#005EB8" d="M323,118.716535 L326.1408,118.716535 L326.1408,106.385827 L326.187678,106.385827 L332.44584,118.716535 L336.453876,118.716535 L336.453876,102.228346 L333.313076,102.228346 L333.313076,114.559055 L333.266198,114.559055 L327.031475,102.228346 L323,102.228346 L323,118.716535 Z M340.086891,118.716535 L343.368324,118.716535 L343.368324,111.488189 L349.93119,111.488189 L349.93119,118.716535 L353.212623,118.716535 L353.212623,102.228346 L349.93119,102.228346 L349.93119,108.889764 L343.368324,108.889764 L343.368324,102.228346 L340.086891,102.228346 L340.086891,118.716535 Z M366.103382,102.535433 C364.908003,102.133858 363.595429,101.944882 362.189101,101.944882 C359.306128,101.944882 356.470032,103.291339 356.470032,106.976378 C356.470032,112.433071 363.642307,111.133858 363.642307,114.275591 C363.642307,115.76378 361.978152,116.401575 360.735895,116.401575 C359.44676,116.401575 358.157626,116 357.032563,115.385827 L356.727859,118.362205 C358.345136,118.76378 359.142056,119 360.923405,119 C364.228277,119 367.064373,117.629921 367.064373,114.015748 C367.064373,108.488189 359.892098,109.692913 359.892098,106.834646 C359.892098,105.03937 361.345304,104.543307 362.470367,104.543307 C363.618868,104.543307 364.76737,104.80315 365.798677,105.251969 L366.103382,102.535433 Z M376.55709,118.716535 L379.838523,118.716535 L379.838523,111.488189 L385.370082,111.488189 L385.370082,108.889764 L379.838523,108.889764 L379.838523,104.826772 L385.651348,104.826772 L385.651348,102.228346 L376.55709,102.228346 L376.55709,118.716535 Z M387.221748,112.716535 C387.221748,116.212598 389.54219,119 393.526787,119 C397.534823,119 399.855265,116.212598 399.855265,112.716535 C399.855265,108.700787 397.112925,106.267717 393.526787,106.267717 C389.964088,106.267717 387.221748,108.700787 387.221748,112.716535 Z M390.503181,112.338583 C390.503181,110.519685 391.487611,108.724409 393.526787,108.724409 C395.589402,108.724409 396.573832,110.472441 396.573832,112.338583 C396.573832,114.370079 395.940984,116.543307 393.526787,116.543307 C391.136029,116.543307 390.503181,114.346457 390.503181,112.338583 Z M413.402896,106.551181 L410.262096,106.551181 L410.262096,112.503937 C410.262096,114.062992 409.769881,116.543307 407.496317,116.543307 C405.480579,116.543307 405.45714,114.535433 405.45714,113.047244 L405.45714,106.551181 L402.31634,106.551181 L402.31634,114.228346 C402.31634,116.968504 403.558597,119 406.418132,119 C408.058848,119 409.418299,118.244094 410.37929,117.062992 L410.426168,117.062992 L410.426168,118.716535 L413.402896,118.716535 L413.402896,106.551181 Z M416.636866,118.716535 L419.777666,118.716535 L419.777666,112.76378 C419.777666,111.204724 420.269881,108.724409 422.543446,108.724409 C424.559183,108.724409 424.582622,110.732283 424.582622,112.220472 L424.582622,118.716535 L427.723422,118.716535 L427.723422,111.03937 C427.723422,108.299213 426.481165,106.267717 423.621631,106.267717 C421.980914,106.267717 420.644902,106.811024 419.660472,108.204724 L419.613595,108.204724 L419.613595,106.551181 L416.636866,106.551181 L416.636866,118.716535 Z M433.46593,112.598425 C433.46593,110.968504 434.028461,108.724409 436.067638,108.724409 C438.083375,108.724409 438.880295,110.897638 438.880295,112.598425 C438.880295,114.322835 438.200569,116.543307 436.114515,116.543307 C434.0519,116.543307 433.46593,114.275591 433.46593,112.598425 Z M438.997489,118.716535 L442.044534,118.716535 L442.044534,101 L438.903733,101 L438.903733,107.968504 L438.856856,107.968504 C437.919304,106.811024 436.81768,106.267717 435.247279,106.267717 C431.543948,106.267717 430.184497,109.244094 430.184497,112.598425 C430.184497,115.929134 431.543948,119 435.247279,119 C436.723924,119 438.013059,118.527559 438.950611,117.346457 L438.997489,117.346457 L438.997489,118.716535 Z M445.911937,109.905512 C446.966683,109.102362 448.302695,108.582677 449.638708,108.582677 C451.490373,108.582677 452.357609,109.244094 452.357609,111.204724 L450.623137,111.204724 C449.310564,111.204724 447.763603,111.322835 446.568224,111.913386 C445.372844,112.503937 444.505609,113.566929 444.505609,115.385827 C444.505609,117.700787 446.591662,119 448.724594,119 C450.154361,119 451.724761,118.244094 452.451364,116.897638 L452.498242,116.897638 C452.521681,117.275591 452.521681,118.07874 452.638875,118.716535 L455.404654,118.716535 C455.334338,117.771654 455.28746,116.92126 455.264021,116 C455.240583,115.102362 455.217144,114.181102 455.217144,112.952756 L455.217144,111.393701 C455.217144,107.80315 453.693621,106.267717 450.013728,106.267717 C448.677716,106.267717 447.037,106.622047 445.818182,107.188976 L445.911937,109.905512 Z M447.505776,115.19685 C447.505776,113.330709 449.59183,113.094488 450.998158,113.094488 L452.357609,113.094488 C452.357609,114.03937 452.216976,114.913386 451.701323,115.598425 C451.209108,116.259843 450.459066,116.685039 449.498075,116.685039 C448.373012,116.685039 447.505776,116.23622 447.505776,115.19685 Z M459.342374,115.055118 C459.342374,117.464567 460.701825,119 463.1629,119 C464.100452,119 464.827055,118.905512 465.483342,118.716535 L465.389586,116.212598 C465.061443,116.425197 464.522351,116.543307 463.959819,116.543307 C462.76444,116.543307 462.483174,115.574803 462.483174,114.535433 L462.483174,108.866142 L465.272392,108.866142 L465.272392,106.551181 L462.483174,106.551181 L462.483174,103.102362 L459.342374,104.11811 L459.342374,106.551181 L457.021932,106.551181 L457.021932,108.866142 L459.342374,108.866142 L459.342374,115.055118 Z M467.498493,118.716535 L470.639293,118.716535 L470.639293,106.551181 L467.498493,106.551181 L467.498493,118.716535 Z M467.498493,104.330709 L470.639293,104.330709 L470.639293,101.307087 L467.498493,101.307087 L467.498493,104.330709 Z M473.170685,112.716535 C473.170685,116.212598 475.491127,119 479.475724,119 C483.48376,119 485.804202,116.212598 485.804202,112.716535 C485.804202,108.700787 483.061862,106.267717 479.475724,106.267717 C475.913025,106.267717 473.170685,108.700787 473.170685,112.716535 Z M476.452118,112.338583 C476.452118,110.519685 477.436548,108.724409 479.475724,108.724409 C481.538339,108.724409 482.522769,110.472441 482.522769,112.338583 C482.522769,114.370079 481.889921,116.543307 479.475724,116.543307 C477.084966,116.543307 476.452118,114.346457 476.452118,112.338583 Z M488.265277,118.716535 L491.406077,118.716535 L491.406077,112.76378 C491.406077,111.204724 491.898292,108.724409 494.171857,108.724409 C496.187594,108.724409 496.211033,110.732283 496.211033,112.220472 L496.211033,118.716535 L499.351833,118.716535 L499.351833,111.03937 C499.351833,108.299213 498.109576,106.267717 495.250042,106.267717 C493.609325,106.267717 492.273313,106.811024 491.288883,108.204724 L491.242006,108.204724 L491.242006,106.551181 L488.265277,106.551181 L488.265277,118.716535 Z M512.360372,118.716535 L515.641805,118.716535 L515.641805,104.826772 L520.329566,104.826772 L520.329566,102.228346 L507.67261,102.228346 L507.67261,104.826772 L512.360372,104.826772 L512.360372,118.716535 Z M520.052988,118.716535 L523.193789,118.716535 L523.193789,114.251969 C523.193789,112.503937 523.193789,109.291339 525.748619,109.291339 C526.31115,109.291339 526.873682,109.385827 527.154947,109.551181 L527.154947,106.362205 C526.826804,106.267717 526.498661,106.267717 526.193956,106.267717 C524.318851,106.267717 523.029717,108.181102 522.889084,109.314961 L522.842207,109.314961 L522.842207,106.551181 L520.052988,106.551181 L520.052988,118.716535 Z M540.186924,106.551181 L537.046124,106.551181 L537.046124,112.503937 C537.046124,114.062992 536.553909,116.543307 534.280345,116.543307 C532.264607,116.543307 532.241169,114.535433 532.241169,113.047244 L532.241169,106.551181 L529.100368,106.551181 L529.100368,114.228346 C529.100368,116.968504 530.342625,119 533.20216,119 C534.842876,119 536.202327,118.244094 537.163318,117.062992 L537.210196,117.062992 L537.210196,118.716535 L540.186924,118.716535 L540.186924,106.551181 Z M550.804119,106.716535 C549.819689,106.503937 548.858697,106.267717 547.382053,106.267717 C544.920978,106.267717 542.647413,107.425197 542.647413,110.047244 C542.647413,114.440945 548.108656,112.811024 548.108656,115.19685 C548.108656,116.377953 546.84296,116.685039 546.046041,116.685039 C544.967855,116.685039 543.936548,116.377953 542.952118,115.88189 L542.764607,118.480315 C543.913109,118.787402 545.131927,119 546.327306,119 C548.882136,119 551.390089,117.866142 551.390089,115.031496 C551.390089,110.637795 545.928846,111.866142 545.928846,109.929134 C545.928846,108.889764 546.936715,108.582677 547.780512,108.582677 C548.929014,108.582677 549.632178,108.771654 550.593169,109.102362 L550.804119,106.716535 Z M554.859032,115.055118 C554.859032,117.464567 556.218483,119 558.679558,119 C559.61711,119 560.343713,118.905512 561,118.716535 L560.906245,116.212598 C560.578101,116.425197 560.039009,116.543307 559.476477,116.543307 C558.281098,116.543307 557.999833,115.574803 557.999833,114.535433 L557.999833,108.866142 L560.789051,108.866142 L560.789051,106.551181 L557.999833,106.551181 L557.999833,103.102362 L554.859032,104.11811 L554.859032,106.551181 L552.53859,106.551181 L552.53859,108.866142 L554.859032,108.866142 L554.859032,115.055118 L554.859032,115.055118 Z"/>
    <path fill="#1A1919" d="M247.455617,65.3031496 C245.661854,64.7007874 243.692232,64.4173228 241.581923,64.4173228 C237.25579,64.4173228 233,66.4370079 233,71.9645669 C233,80.1496063 243.762576,78.2007874 243.762576,82.9133858 C243.762576,85.1456693 241.265377,86.1023622 239.401271,86.1023622 C237.466821,86.1023622 235.532371,85.5 233.844124,84.5787402 L233.38689,89.0433071 C235.813745,89.6456693 237.009587,90 239.682645,90 C244.641871,90 248.897661,87.9448819 248.897661,82.523622 C248.897661,74.2322835 238.135085,76.0393701 238.135085,71.7519685 C238.135085,69.0590551 240.315738,68.3149606 242.003985,68.3149606 C243.727404,68.3149606 245.450823,68.7047244 246.998383,69.3779528 L247.455617,65.3031496 Z M251.78175,80.5748031 C251.78175,85.8188976 255.26376,90 261.242969,90 C267.257349,90 270.739359,85.8188976 270.739359,80.5748031 C270.739359,74.5511811 266.624257,70.9015748 261.242969,70.9015748 C255.896853,70.9015748 251.78175,74.5511811 251.78175,80.5748031 Z M256.705804,80.007874 C256.705804,77.2795276 258.183021,74.5866142 261.242969,74.5866142 C264.338089,74.5866142 265.815305,77.2086614 265.815305,80.007874 C265.815305,83.0551181 264.865666,86.3149606 261.242969,86.3149606 C257.655443,86.3149606 256.705804,83.019685 256.705804,80.007874 Z M291.068669,71.3267717 L286.355646,71.3267717 L286.355646,80.2559055 C286.355646,82.5944882 285.617038,86.3149606 282.205372,86.3149606 C279.180595,86.3149606 279.145423,83.3031496 279.145423,81.0708661 L279.145423,71.3267717 L274.4324,71.3267717 L274.4324,82.8425197 C274.4324,86.9527559 276.296506,90 280.587468,90 C283.049495,90 285.08946,88.8661417 286.531505,87.0944882 L286.601849,87.0944882 L286.601849,89.5748031 L291.068669,89.5748031 L291.068669,71.3267717 Z M297.469354,84.0826772 C297.469354,87.6968504 299.509319,90 303.20236,90 C304.609233,90 305.699559,89.8582677 306.68437,89.5748031 L306.543682,85.8188976 C306.051277,86.1377953 305.242325,86.3149606 304.398202,86.3149606 C302.604439,86.3149606 302.182377,84.8622047 302.182377,83.3031496 L302.182377,74.7992126 L306.367823,74.7992126 L306.367823,71.3267717 L302.182377,71.3267717 L302.182377,66.1535433 L297.469354,67.6771654 L297.469354,71.3267717 L293.987344,71.3267717 L293.987344,74.7992126 L297.469354,74.7992126 L297.469354,84.0826772 Z M309.60363,89.5748031 L314.316654,89.5748031 L314.316654,80.6456693 C314.316654,78.3070866 315.055262,74.5866142 318.466928,74.5866142 C321.491705,74.5866142 321.526876,77.5984252 321.526876,79.8307087 L321.526876,89.5748031 L326.2399,89.5748031 L326.2399,78.0590551 C326.2399,73.9488189 324.375793,70.9015748 320.084832,70.9015748 C317.622805,70.9015748 315.582839,72.0354331 314.386998,73.8070866 L314.316654,73.8070866 L314.316654,63 L309.60363,63 L309.60363,89.5748031 Z M345.302438,89.5748031 L351.668537,89.5748031 L356.029842,69.8031496 L356.100186,69.8031496 L360.531835,89.5748031 L366.862762,89.5748031 L373.264032,64.8425197 L368.480665,64.8425197 L363.873157,84.6141732 L363.802814,84.6141732 L359.47668,64.8425197 L352.794035,64.8425197 L348.608589,84.6141732 L348.538245,84.6141732 L343.965909,64.8425197 L338.795652,64.8425197 L345.302438,89.5748031 Z M375.695577,76.3582677 C377.278309,75.1535433 379.283103,74.3740157 381.287896,74.3740157 C384.06647,74.3740157 385.367827,75.3661417 385.367827,78.3070866 L382.765112,78.3070866 C380.795491,78.3070866 378.474151,78.484252 376.680388,79.3700787 C374.886626,80.2559055 373.585268,81.8503937 373.585268,84.5787402 C373.585268,88.0511811 376.71556,90 379.916195,90 C382.061676,90 384.418188,88.8661417 385.508514,86.8464567 L385.578858,86.8464567 C385.61403,87.4133858 385.61403,88.6181102 385.789889,89.5748031 L389.940163,89.5748031 C389.834648,88.1574803 389.764304,86.8818898 389.729132,85.5 C389.69396,84.1535433 389.658789,82.7716535 389.658789,80.9291339 L389.658789,78.5905512 C389.658789,73.2047244 387.37262,70.9015748 381.850645,70.9015748 C379.845852,70.9015748 377.383825,71.4330709 375.55489,72.2834646 L375.695577,76.3582677 Z M378.087261,84.2952756 C378.087261,81.496063 381.217553,81.1417323 383.327862,81.1417323 L385.367827,81.1417323 C385.367827,82.5590551 385.156796,83.8700787 384.383016,84.8976378 C383.644408,85.8897638 382.51891,86.5275591 381.076865,86.5275591 C379.388618,86.5275591 378.087261,85.8543307 378.087261,84.2952756 Z M394.406984,89.5748031 L399.120007,89.5748031 L399.120007,82.8779528 C399.120007,80.2559055 399.120007,75.4370079 402.953735,75.4370079 C403.797859,75.4370079 404.641982,75.5787402 405.064044,75.8267717 L405.064044,71.0433071 C404.571639,70.9015748 404.079233,70.9015748 403.622,70.9015748 C400.808254,70.9015748 398.873805,73.7716535 398.662774,75.4724409 L398.59243,75.4724409 L398.59243,71.3267717 L394.406984,71.3267717 L394.406984,89.5748031 Z M412.063236,89.5748031 L417.444524,89.5748031 L421.313424,75.6496063 L421.383767,75.6496063 L425.323011,89.5748031 L430.880158,89.5748031 L436.437305,71.3267717 L431.935312,71.3267717 L428.171928,84.8267717 L428.101584,84.8267717 L424.162341,71.3267717 L418.675537,71.3267717 L415.017668,84.8267717 L414.947325,84.8267717 L410.937738,71.3267717 L405.94334,71.3267717 L412.063236,89.5748031 Z M439.355979,89.5748031 L444.069003,89.5748031 L444.069003,71.3267717 L439.355979,71.3267717 L439.355979,89.5748031 Z M439.355979,67.996063 L444.069003,67.996063 L444.069003,63.4606299 L439.355979,63.4606299 L439.355979,67.996063 Z M461.198264,71.503937 C459.89632,71.1141732 458.525206,70.9015748 456.625927,70.9015748 C450.962679,70.9015748 447.868145,75.0826772 447.868145,80.3622047 C447.868145,85.9251969 450.857163,90 456.801787,90 C458.73565,90 460.143109,89.8228346 461.514224,89.3976378 L461.303193,85.4645669 C460.494241,85.8188976 459.017025,86.3149606 457.681082,86.3149606 C454.374345,86.3149606 452.791613,83.7283465 452.791613,80.3622047 C452.791613,76.9251969 454.65572,74.5866142 457.575567,74.5866142 C459.017025,74.5866142 459.931492,74.8700787 460.775616,75.2598425 L461.198264,71.503937 Z M464.750031,89.5748031 L469.463054,89.5748031 L469.463054,80.7165354 L469.533398,80.7165354 L475.58295,89.5748031 L481.562159,89.5748031 L473.965047,79.476378 L480.718036,71.3267717 L475.160889,71.3267717 L469.533398,78.6259843 L469.463054,78.6259843 L469.463054,63 L464.750031,63 L464.750031,89.5748031 Z M495.279168,71.5748031 C493.801951,71.2559055 492.359907,70.9015748 490.144083,70.9015748 C486.451042,70.9015748 483.039376,72.6377953 483.039376,76.5708661 C483.039376,83.1614173 491.234409,80.7165354 491.234409,84.2952756 C491.234409,86.0669291 489.335131,86.5275591 488.139289,86.5275591 C486.521385,86.5275591 484.973825,86.0669291 483.496609,85.3228346 L483.215235,89.2204724 C484.938654,89.6811024 486.767588,90 488.561351,90 C492.395079,90 496.158463,88.2992126 496.158463,84.0472441 C496.158463,77.4566929 487.96343,79.2992126 487.96343,76.3937008 C487.96343,74.8346457 489.475818,74.3740157 490.742003,74.3740157 C492.465422,74.3740157 493.520577,74.6574803 494.962621,75.1535433 L495.279168,71.5748031 Z M499.815746,89.5748031 L504.528769,89.5748031 L504.528769,80.6456693 C504.528769,78.3070866 505.267378,74.5866142 508.679044,74.5866142 C511.70382,74.5866142 511.738992,77.5984252 511.738992,79.8307087 L511.738992,89.5748031 L516.452015,89.5748031 L516.452015,78.0590551 C516.452015,73.9488189 514.587909,70.9015748 510.296947,70.9015748 C507.83492,70.9015748 505.794955,72.0354331 504.599113,73.8070866 L504.528769,73.8070866 L504.528769,63 L499.815746,63 L499.815746,89.5748031 Z M521.410655,89.5748031 L526.123679,89.5748031 L526.123679,71.3267717 L521.410655,71.3267717 L521.410655,89.5748031 Z M521.410655,67.996063 L526.123679,67.996063 L526.123679,63.4606299 L521.410655,63.4606299 L521.410655,67.996063 Z M531.18842,89.5748031 L535.901444,89.5748031 L535.901444,82.8779528 C535.901444,80.2559055 535.901444,75.4370079 539.735172,75.4370079 C540.579295,75.4370079 541.423419,75.5787402 541.845481,75.8267717 L541.845481,71.0433071 C541.353075,70.9015748 540.86067,70.9015748 540.403436,70.9015748 C537.589691,70.9015748 535.655241,73.7716535 535.44421,75.4724409 L535.373866,75.4724409 L535.373866,71.3267717 L531.18842,71.3267717 L531.18842,89.5748031 Z M547.478833,78.6614173 C547.689864,76.2165354 549.026393,74.3740157 551.664279,74.3740157 C554.302166,74.3740157 555.35732,76.3582677 555.498007,78.6614173 L547.478833,78.6614173 Z M558.663471,84.6850394 C556.90488,85.6771654 554.935258,86.5275591 552.64909,86.5275591 C549.72983,86.5275591 547.689864,84.8622047 547.478833,81.9212598 L560,81.9212598 C560,75.5433071 558.100722,70.9015748 551.382905,70.9015748 C545.755414,70.9015748 542.976841,75.2598425 542.976841,80.5393701 C542.976841,86.5275591 546.458851,90 552.438059,90 C554.97043,90 556.940052,89.503937 558.663471,88.5472441 L558.663471,84.6850394 L558.663471,84.6850394 Z"/>
    <path fill="#005EB8" d="M437,50 L561,50 L561,0 L437,0 L437,50 Z M486.855773,4.82478833 L478.295363,45.0699671 L464.862582,45.0699671 L456.416671,17.2224835 L456.302172,17.2224835 L450.684091,45.0699671 L440.497209,45.0699671 L449.125731,4.82478833 L462.604311,4.82478833 L470.883465,32.7328316 L470.997377,32.7328316 L476.668303,4.82478833 L486.855773,4.82478833 Z M525.277506,4.82478833 L516.88444,45.0699671 L506.066346,45.0699671 L509.654566,27.8327846 L496.860044,27.8327846 L493.271824,45.0699671 L482.453729,45.0699671 L490.846795,4.82478833 L501.664889,4.82478833 L498.487103,20.2216604 L511.273992,20.2216604 L514.459412,4.82478833 L525.277506,4.82478833 Z M556.355453,5.92250706 L553.747813,13.9357949 C551.665107,12.9586077 548.828469,12.0948965 544.838035,12.0948965 C540.558123,12.0948965 537.083814,12.7234243 537.083814,15.9571966 C537.083814,21.6603951 552.766646,19.5319849 552.766646,31.7556444 C552.766646,42.8809972 542.405373,45.766698 533.031139,45.766698 C528.865139,45.766698 524.060881,44.7818674 520.533727,43.6841486 L523.080301,35.496825 C525.21644,36.8832314 529.503985,37.8069144 533.031139,37.8069144 C536.392123,37.8069144 541.652616,37.1707432 541.652616,33.0209313 C541.652616,26.5604421 525.969197,28.9834196 525.969197,17.6311148 C525.969197,7.24776576 535.11502,4.13511289 543.970779,4.13511289 C548.950602,4.13511289 553.633902,4.65780809 556.355453,5.92250706 L556.355453,5.92250706 Z"/>
  </g>
</svg>
