<svg xmlns="http://www.w3.org/2000/svg" xmlns:xlink="http://www.w3.org/1999/xlink" width="80" height="80" viewBox="0 0 80 80">
  <defs>
    <circle id="lying-a" cx="40" cy="40" r="40"/>
  </defs>
  <g fill="none" fill-rule="evenodd">
    <mask id="lying-b" fill="#fff">
      <use xlink:href="#lying-a"/>
    </mask>
    <use fill="#D8D8D8" fill-rule="nonzero" xlink:href="#lying-a"/>
    <g fill="#C1CDCD" mask="url(#lying-b)">
      <rect width="80" height="80"/>
    </g>
    <g fill="#FFF" transform="translate(11 33)">
      <path d="M8 0C3.58829188 0 0 3.58848862 0 7.99945314 0 12.4115114 3.58829188 16 8 16 12.4117081 16 16 12.4115114 16 7.99945314 16 3.58848862 12.4117081 0 8 0zM39.3643436 4.49907315C39.3643436 4.49907315 39.3643436 0 36.2766059 0L19.7373847 0C18.778795 0 18 .945672323 18 2.10580351L18 11.2887495C18.0075703 11.4256381 18 11.4575788 18 11.4929417L18 13.8930558C18 15.0543277 18.778795 16 19.7373847 16L52.6483342 16C54.7104294 16 56.1604897 15.0949047 57.0269352 13.7925285 57.640884 12.8696864 57.9618055 11.7473734 57.9998108 10.606256 58.0094818 10.3158801 57.6529766 6.95736812 55.8810431 5.50064077 54.6451061 4.48456242 51.4169019 4.48759469 51.2375092 4.67196212L39.3643436 4.49907315z"/>
    </g>
  </g>
</svg>
