<svg xmlns="http://www.w3.org/2000/svg" xmlns:xlink="http://www.w3.org/1999/xlink" width="80" height="80" viewBox="0 0 80 80">
  <defs>
    <circle id="sitting-a" cx="40" cy="40" r="40"/>
  </defs>
  <g fill="none" fill-rule="evenodd">
    <mask id="sitting-b" fill="#fff">
      <use xlink:href="#sitting-a"/>
    </mask>
    <use fill="#D8D8D8" fill-rule="nonzero" xlink:href="#sitting-a"/>
    <g fill="#C1CDCD" mask="url(#sitting-b)">
      <rect width="91" height="91" transform="translate(-8.571 -4.762)"/>
    </g>
    <g fill="#FFF" fill-rule="nonzero" transform="translate(28 12)">
      <path d="M7.21252933 14.4661769C11.1896745 14.4661769 14.4252627 11.2305887 14.4252627 7.25364759 14.4252627 3.2765024 11.1894705.0409141924 7.21252933.0409141924 3.23558821.0409141924 0 3.27670646 0 7.25364759 0 11.2307928 3.23558821 14.4661769 7.21252933 14.4661769zM19.490052 34.2937455L13.7453321 34.2937455 13.7453321 22.9469442C13.7453321 19.338945 10.8205285 16.4141414 7.21273339 16.4141414 3.60493827 16.4141414.68013468 19.338945.68013468 22.9467401L.68013468 38.3604734C.68013468 41.8244057 3.48821549 44.6324865 6.95214774 44.6324865L14.405877 44.6324865 14.405877 54.9034792C14.405877 55.882563 15.1994694 56.6761555 16.1785532 56.6761555L23.060504 56.6761555C24.0395878 56.6761555 24.8331803 55.882563 24.8331803 54.9034792L24.8331803 39.6368738C24.8331803 36.6859504 22.4409754 34.2937455 19.490052 34.2937455z"/>
    </g>
  </g>
</svg>
