<svg xmlns="http://www.w3.org/2000/svg" xmlns:xlink="http://www.w3.org/1999/xlink" width="80" height="80" viewBox="0 0 80 80">
  <defs>
    <circle id="standing-a" cx="40" cy="40" r="40"/>
  </defs>
  <g fill="none" fill-rule="evenodd">
    <mask id="standing-b" fill="#fff">
      <use xlink:href="#standing-a"/>
    </mask>
    <use fill="#D8D8D8" fill-rule="nonzero" xlink:href="#standing-a"/>
    <g fill="#C1CDCD" mask="url(#standing-b)">
      <rect width="91" height="91" transform="translate(-8.571 -4.762)"/>
    </g>
    <g fill="#FFF" transform="translate(24 9)">
      <path d="M15.9994339 16C20.4112361 16 24 12.4113861 24 8 24 3.58861393 20.4112361 0 15.9994339 0 11.5876318 0 8 3.58861393 8 8 8 12.4113861 11.5876318 16 15.9994339 16zM25.088196 52.6588091L23.9436958 38.7623748 23.9436958 38.4208156 23.9436958 30.2455316 26.3047997 37.829412C26.7740447 39.1513728 28.3317094 39.8798217 29.7680571 39.4476017L30.1022512 39.3474532C31.2410288 39.0037855 31.9620639 38.0276007 31.9815204 36.9786765 32.0227224 36.7140735 31.9952544 36.4336576 31.8968274 36.15535L26.7088082 23.1760985 25.344564 19.765777C24.994347 18.7748335 23.8246678 18 22.6836012 18L21.703909 18 21.0034749 18 10.9868095 18 10.2863755 18 9.30668332 18C8.16447216 18 6.9959375 18.7748335 6.64572045 19.765777L.0946015475 36.15535C.011053036 36.392544-.0118369672 36.6286837.00533053519 36.8574441-.03243797 37.9516987.700042131 38.9911352 1.88345529 39.3474532L2.21764934 39.4476017C3.65285254 39.8798217 5.21166175 39.1513728 5.68090682 37.829412L8.04658864 30.2486942 8.04658864 38.4208156 8.04658864 38.7623748 6.90208849 58.5991662C6.90208849 60.4745795 8.57649222 62 10.6343035 62L10.8975385 62C12.9553498 62 14.6297536 60.4745795 14.6297536 58.5991662L15.7742537 40.8032968 16.2171753 40.8032968 17.3616754 58.5991662C17.3616754 60.4745795 19.0360792 62 21.0938904 62L20.2114808 62C22.2704366 62 25.088196 60.4745795 25.088196 58.5991662L25.088196 51.3441536"/>
    </g>
  </g>
</svg>
